<svg width="16" height="16" viewBox="0 0 16 16" fill="none" xmlns="http://www.w3.org/2000/svg">
<path fill-rule="evenodd" clip-rule="evenodd" d="M0.533183 8.26836C0.875375 8.60958 1.33891 8.80124 1.82216 8.80124C2.30541 8.80124 2.76894 8.60958 3.11113 8.26836L8.26836 3.11113C8.60958 2.76894 8.80124 2.30541 8.80124 1.82216C8.80124 1.33891 8.60958 0.875375 8.26836 0.533183C7.92614 0.19175 7.46247 0 6.97905 0C6.49563 0 6.03196 0.19175 5.68973 0.533183L0.533183 5.68973C0.19175 6.03196 0 6.49563 0 6.97905C0 7.46247 0.19175 7.92614 0.533183 8.26836ZM7.73168 12.8881L12.8883 7.73155C13.2305 7.3901 13.6942 7.19835 14.1776 7.19835C14.661 7.19835 15.1247 7.3901 15.4669 7.73155C15.8083 8.07377 16 8.53745 16 9.02087C16 9.50429 15.8083 9.96796 15.4669 10.3102L10.3103 15.4667C9.96809 15.8082 9.50442 15.9999 9.021 15.9999C8.53758 15.9999 8.07391 15.8082 7.73168 15.4667C7.39024 15.1245 7.19849 14.6608 7.19849 14.1774C7.19849 13.694 7.39024 13.2304 7.73168 12.8881ZM7.35429 10.4661C6.87092 10.4661 6.4072 10.2743 6.06502 9.9329C5.72358 9.59068 5.53183 9.127 5.53183 8.64358C5.53183 8.16016 5.72358 7.69649 6.06502 7.35427L7.35429 6.065C7.69652 5.72355 8.16019 5.5318 8.64361 5.5318C9.12703 5.5318 9.5907 5.72355 9.93293 6.065C10.2744 6.40717 10.4661 6.87089 10.4661 7.35427C10.4661 7.83769 10.2744 8.30136 9.93293 8.64358L8.64361 9.9329C8.30138 10.2743 7.83771 10.4661 7.35429 10.4661Z" fill="white"/>
</svg>
