<svg width="44" height="44" viewBox="0 0 44 44" fill="none" xmlns="http://www.w3.org/2000/svg">
<g filter="url(#filter0_d_0_47)">
<path d="M26 18.75C25.59 18.75 25.25 18.41 25.25 18V14.5C25.25 13.42 24.58 12.75 23.5 12.75H20.5C19.42 12.75 18.75 13.42 18.75 14.5V18C18.75 18.41 18.41 18.75 18 18.75C17.59 18.75 17.25 18.41 17.25 18V14.5C17.25 12.59 18.59 11.25 20.5 11.25H23.5C25.41 11.25 26.75 12.59 26.75 14.5V18C26.75 18.41 26.41 18.75 26 18.75Z" fill="#5ED5A8"/>
<path d="M18 27.78C17.59 27.78 17.25 27.44 17.25 27.03C17.25 26.61 17.59 26.28 18 26.28H29.76C30.06 26.28 30.29 26.02 30.26 25.72L29.58 20.03C29.34 18.09 29 16.5 25.6 16.5H18.4C15 16.5 14.66 18.09 14.43 20.03L13.53 27.53C13.24 29.99 14 32 17.51 32H26.49C29.65 32 30.58 30.37 30.53 28.25C30.52 27.98 30.3 27.78 30.03 27.78H18Z" fill="#5ED5A8"/>
</g>
<defs>
<filter id="filter0_d_0_47" x="-2.52625" y="0.25" width="49.0581" height="52.75" filterUnits="userSpaceOnUse" color-interpolation-filters="sRGB">
<feFlood flood-opacity="0" result="BackgroundImageFix"/>
<feColorMatrix in="SourceAlpha" type="matrix" values="0 0 0 0 0 0 0 0 0 0 0 0 0 0 0 0 0 0 127 0" result="hardAlpha"/>
<feOffset dy="5"/>
<feGaussianBlur stdDeviation="8"/>
<feComposite in2="hardAlpha" operator="out"/>
<feColorMatrix type="matrix" values="0 0 0 0 0.368627 0 0 0 0 0.835294 0 0 0 0 0.658824 0 0 0 0.25 0"/>
<feBlend mode="normal" in2="BackgroundImageFix" result="effect1_dropShadow_0_47"/>
<feBlend mode="normal" in="SourceGraphic" in2="effect1_dropShadow_0_47" result="shape"/>
</filter>
</defs>
</svg>
