<svg width="40" height="40" viewBox="0 0 40 40" fill="none" xmlns="http://www.w3.org/2000/svg">
<path fill-rule="evenodd" clip-rule="evenodd" d="M20 40C9 40 0 31.0002 0 19.9004C0.1 8.90064 9 -0.0991726 20.1 0.00082534C31.1 0.100823 40 9.00064 40 20.2004C39.9 31.1002 31 40 20 40Z" fill="#E42D04"/>
<path fill-rule="evenodd" clip-rule="evenodd" d="M20.3896 34.6667C21.8412 34.6667 25.565 34.0122 28.847 31.3946C32.6209 28.3845 32.9764 26.7057 33.2058 25.6233C33.2257 25.5292 33.2447 25.4394 33.265 25.3537C33.3032 25.1915 33.3256 24.9713 33.3333 24.7095C32.5406 24.5811 31.4295 24.5076 30.1329 24.6616C28.0122 24.9133 26.346 26.3605 25.7779 27.0527C25.4624 25.4796 23.9224 22.3333 20.2869 22.3333C16.6515 22.3333 14.6908 25.4796 14.1648 27.0527C13.8282 26.4654 12.5743 25.165 10.2517 24.6616C8.8156 24.3503 7.5629 24.5041 6.66663 24.766C6.73739 25.9358 7.12189 27.1835 8.14526 28.5C9.90616 30.7653 12.6384 32.1641 13.8574 32.7882C13.9928 32.8576 14.1096 32.9173 14.2043 32.9677C15.151 33.4711 17.7387 34.6667 20.3896 34.6667Z" fill="white"/>
<path fill-rule="evenodd" clip-rule="evenodd" d="M33.3303 24.6635C32.538 24.5355 31.4276 24.4622 30.1317 24.6157C28.0123 24.8667 26.347 26.3098 25.7793 27C25.4639 25.4314 23.9248 22.2941 20.2915 22.2941C16.6582 22.2941 14.6986 25.4314 14.1729 27C13.8365 26.4143 12.5834 25.1176 10.2621 24.6157C8.82683 24.3053 7.57485 24.4587 6.6791 24.72C6.61461 23.6562 6.81086 22.6572 7.02146 21.7294C7.3747 20.1733 8.262 18.1111 8.6615 17.2745C8.30405 16.417 7.47562 13.9867 7.02146 11.1255C6.5673 8.2643 7.33685 6.33594 7.7784 5.7294C8.49328 5.91764 10.2006 6.50744 11.3108 7.36077C12.421 8.21411 14.1283 10.1006 14.8432 10.9372C15.7683 10.6863 18.1485 10.1843 20.2679 10.1843C22.3873 10.1843 24.4311 10.6863 25.188 10.9372C25.8188 10.1843 27.3705 8.41489 28.5312 7.36077C29.6918 6.30666 31.5799 5.79215 32.3789 5.66666C32.5891 5.93855 33.0349 6.73332 33.1359 7.73724C33.262 8.99215 32.8836 11.6274 32.3789 13.3843C31.9752 14.7898 31.4537 16.4379 31.2435 17.0863C31.3486 17.3163 31.7103 18.0651 32.3158 19.2196C32.958 20.4439 33.373 23.2033 33.3303 24.6635Z" fill="#FFAA35"/>
<path d="M22.9791 30.2473C22.8291 30.4481 22.6666 30.8328 22.6041 31V30.9373L22.4166 29.432C22.0625 29.4737 21.1416 29.5574 20.2916 29.5574C19.4416 29.5574 18.4375 29.4737 18.0416 29.432L17.9791 30.9373C17.9375 30.8746 17.8291 30.6989 17.7291 30.4982C17.6041 30.2473 17.1666 29.871 17.1666 29.6828C17.1666 29.5323 16.9583 29.202 16.8541 29.0556L16.6666 28.8047H17.7916L18.0416 28.9929C18.25 28.9719 18.7791 28.9553 19.2291 29.0556C19.6791 29.156 19.9583 28.763 20.0416 28.5538V27.5503C19.8541 27.4248 19.3916 27.1363 19.0416 26.9858C18.6041 26.7976 18.1666 26.045 18.2916 25.2923C18.4166 24.5396 18.7916 24.2887 19.0416 24.3514C19.2916 24.4142 20.9166 24.2887 21.1666 24.3514C21.4166 24.4142 21.8541 24.5396 22.0416 24.8532C22.2291 25.1668 22.1041 26.4213 21.7291 26.8603C21.4291 27.2116 20.8541 27.4666 20.6041 27.5503V28.5538C20.6041 28.6793 21.0416 28.9929 21.1041 29.0556C21.1666 29.1183 22.1041 29.0556 22.2916 29.0556C22.4416 29.0556 22.5625 28.9302 22.6041 28.8675H23.6666V29.1183C23.6666 29.2438 23.4791 29.8083 23.4166 29.871C23.3541 29.9337 23.1666 29.9965 22.9791 30.2473Z" fill="black"/>
<path d="M20.9683 29.8333L20.3333 30.3333L19.8254 29.8333L19.381 30.0555L19 29.6666H21.6667L21.2857 30.1111L20.9683 29.8333Z" fill="black"/>
<path d="M14.135 19.5769C13.3912 19.2692 12.5853 19.0641 12.2754 19C12.1927 19.0427 12.0274 19.1795 12.0274 19.3846C12.0274 19.641 11.9654 19.8974 12.0274 20.4102C12.0894 20.9231 12.5853 21.2436 13.4531 21.6282C14.321 22.0128 15.8087 22.3333 16.8624 22.3333C17.9162 22.3333 16.9244 21.2436 16.5525 20.9872C16.1806 20.7308 15.0648 19.9615 14.135 19.5769Z" fill="black"/>
<path d="M15.1531 17.8757C14.5973 17.9751 13.8266 18 13.5108 18C13.1949 17.9586 12.5253 17.7639 12.3737 17.3166C12.1842 16.7574 12.6896 16.1361 13.3212 15.8254C13.9529 15.5148 14.7741 15.639 15.2795 16.3846C15.7848 17.1302 15.848 17.7515 15.1531 17.8757Z" fill="white"/>
<path d="M26.5316 19.2436C27.2754 18.9359 28.0813 18.7308 28.3912 18.6667C28.4739 18.7093 28.6392 18.8461 28.6392 19.0513C28.6392 19.3077 28.7011 19.5641 28.6392 20.0769C28.5772 20.5897 28.0813 20.9102 27.2134 21.2949C26.3456 21.6795 24.8579 22 23.8041 22C22.7504 22 23.7422 20.9102 24.1141 20.6538C24.486 20.3974 25.6018 19.6282 26.5316 19.2436Z" fill="black"/>
<path d="M24.5136 17.8757C25.0694 17.9751 25.8401 18 26.156 18C26.4718 17.9586 27.1414 17.7639 27.293 17.3166C27.4825 16.7574 26.9771 16.1361 26.3455 15.8254C25.7138 15.5148 24.8926 15.639 24.3872 16.3846C23.8819 17.1302 23.8187 17.7515 24.5136 17.8757Z" fill="white"/>
<path d="M10.8099 13.2248C10.3556 13.7209 9.48499 14.8372 9.10646 15.3333C8.8541 14.7959 8.29891 13.3612 8.09703 11.9225C7.89514 10.4837 8.05497 8.26356 8.16011 7.33333C8.43351 7.354 9.23264 7.58139 10.2421 8.32558C11.2515 9.06976 12.7236 10.4548 13.3335 11.0543C12.6815 11.5711 11.2641 12.7287 10.8099 13.2248Z" fill="#FF8C30"/>
<path fill-rule="evenodd" clip-rule="evenodd" d="M8.00012 8.51463C8.99228 8.92866 10.2983 9.56155 10.8456 10.1336C11.4008 10.7138 11.8892 11.482 12.1791 12C12.6145 11.6391 13.047 11.2923 13.3335 11.067C12.7168 10.4655 11.2283 9.0757 10.2077 8.32897C9.18698 7.58224 8.37896 7.35407 8.10252 7.33333C8.06951 7.62309 8.03119 8.03758 8.00012 8.51463Z" fill="#FF9A32"/>
<path d="M28.857 13.2248C29.3112 13.7209 30.1818 14.8372 30.5604 15.3333C30.8127 14.7959 31.3679 13.3612 31.5698 11.9225C31.7717 10.4837 31.6118 8.26356 31.5067 7.33333C31.2333 7.354 30.4342 7.58139 29.4248 8.32558C28.4153 9.06976 26.9432 10.4548 26.3334 11.0543C26.9853 11.5711 28.4027 12.7287 28.857 13.2248Z" fill="#FF8C30"/>
<path fill-rule="evenodd" clip-rule="evenodd" d="M31.6667 8.51463C30.6745 8.92866 29.3686 9.56155 28.8212 10.1336C28.266 10.7138 27.7776 11.482 27.4877 12C27.0524 11.6391 26.6198 11.2923 26.3334 11.067C26.95 10.4655 28.4385 9.0757 29.4591 8.32897C30.4798 7.58224 31.2878 7.35407 31.5643 7.33333C31.5973 7.62309 31.6356 8.03758 31.6667 8.51463Z" fill="#FF9A32"/>
</svg>
