<svg width="16" height="16" viewBox="0 0 16 16" fill="none" xmlns="http://www.w3.org/2000/svg">
<path d="M16 11.5287C16 11.5287 15.3037 11.8365 14.2612 12.2981C12.2378 13.152 8.92575 14.5138 6.88694 15.1216C3.8095 16.041 2.7901 15.7909 2.87473 15.1216C2.95936 14.4523 5.59442 12.5135 5.78676 12.3712L3.86336 13.3675C1.93996 14.3715 0.785919 14.5215 0.855162 13.3675C0.924404 12.2134 5.19819 8.66288 5.3636 8.5244C5.28282 8.57441 3.97491 9.38608 2.35925 10.3593C0.743594 11.3325 -0.148847 11.3633 0.0204126 10.3593C0.189672 9.3553 4.78275 5.84707 4.78275 5.84707L1.70531 7.5204C1.70531 7.5204 0.508958 7.60119 1.70531 6.01633C2.70163 4.69689 9.15657 1.41946 11.3223 0.346217L12.0224 0L16 11.5287Z" fill="#F5AB85"/>
</svg>
