<svg width="44" height="44" viewBox="0 0 44 44" fill="none" xmlns="http://www.w3.org/2000/svg">
<path d="M21 30.75C15.62 30.75 11.25 26.38 11.25 21C11.25 15.62 15.62 11.25 21 11.25C26.38 11.25 30.75 15.62 30.75 21C30.75 26.38 26.38 30.75 21 30.75ZM21 12.75C16.45 12.75 12.75 16.45 12.75 21C12.75 25.55 16.45 29.25 21 29.25C25.55 29.25 29.25 25.55 29.25 21C29.25 16.45 25.55 12.75 21 12.75Z" fill="#5ED5A8"/>
<path d="M30.16 32.79C30.08 32.79 30 32.78 29.93 32.77C29.46 32.71 28.61 32.39 28.13 30.96C27.88 30.21 27.97 29.46 28.38 28.89C28.79 28.32 29.48 28 30.27 28C31.29 28 32.09 28.39 32.45 29.08C32.81 29.77 32.71 30.65 32.14 31.5C31.43 32.57 30.66 32.79 30.16 32.79ZM29.56 30.49C29.73 31.01 29.97 31.27 30.13 31.29C30.29 31.31 30.59 31.12 30.9 30.67C31.19 30.24 31.21 29.93 31.14 29.79C31.07 29.65 30.79 29.5 30.27 29.5C29.96 29.5 29.73 29.6 29.6 29.77C29.48 29.94 29.46 30.2 29.56 30.49Z" fill="#5ED5A8"/>
<path opacity="0.1" d="M27.0622 17.5C26.5254 16.5701 25.7818 15.7762 24.889 15.1797C23.9963 14.5832 22.9783 14.2 21.9137 14.0599C20.8492 13.9197 19.7667 14.0263 18.75 14.3715C17.7332 14.7166 16.8095 15.291 16.0503 16.0502C15.2911 16.8095 14.7167 17.7332 14.3715 18.7499C14.0264 19.7666 13.9198 20.8491 14.0599 21.9137C14.2001 22.9782 14.5832 23.9962 15.1798 24.889C15.7763 25.7817 16.5702 26.5253 17.5 27.0622L21 21L27.0622 17.5Z" fill="#5ED5A8"/>
</svg>
