<svg width="21" height="21" viewBox="0 0 21 21" fill="none" xmlns="http://www.w3.org/2000/svg">
<path d="M8.3494 8.88578C8.3494 9.43229 8.5012 9.51325 8.8453 9.6347L9.36145 9.81687V8.09639H9.05783C8.67325 8.09639 8.3494 8.4506 8.3494 8.88578Z" fill="#777777"/>
<path d="M10.8795 13.6627H11.1831C11.5778 13.6627 11.8916 13.3084 11.8916 12.8733C11.8916 12.3268 11.7398 12.2458 11.3957 12.1243L10.8795 11.9422V13.6627Z" fill="#777777"/>
<path d="M17.7918 4.28096L15.7171 6.35566C15.5653 6.50747 15.373 6.57831 15.1807 6.57831C14.9884 6.57831 14.7961 6.50747 14.6443 6.35566C14.3508 6.06217 14.3508 5.57639 14.6443 5.28289L16.719 3.20819C14.9378 1.69012 12.6405 0.759036 10.1205 0.759036C4.53398 0.759036 0 5.29301 0 10.8795C0 16.466 4.53398 21 10.1205 21C15.707 21 20.241 16.466 20.241 10.8795C20.241 8.35952 19.3099 6.06217 17.7918 4.28096ZM11.8916 10.6973C12.5393 10.9301 13.4096 11.3957 13.4096 12.8834C13.4096 14.1484 12.4077 15.1908 11.1831 15.1908H10.8795V15.4439C10.8795 15.8588 10.5354 16.2029 10.1205 16.2029C9.70554 16.2029 9.36145 15.8588 9.36145 15.4439V15.1908H9.28048C7.93446 15.1908 6.83133 14.0573 6.83133 12.6607C6.83133 12.2357 7.17542 11.8916 7.59036 11.8916C8.0053 11.8916 8.3494 12.2357 8.3494 12.6506C8.3494 13.2072 8.76434 13.6627 9.28048 13.6627H9.36145V11.4159L8.3494 11.0617C7.70169 10.8289 6.83133 10.3634 6.83133 8.87566C6.83133 7.6106 7.83325 6.56819 9.05783 6.56819H9.36145V6.3253C9.36145 5.91036 9.70554 5.56627 10.1205 5.56627C10.5354 5.56627 10.8795 5.91036 10.8795 6.3253V6.57831H10.9605C12.3065 6.57831 13.4096 7.71181 13.4096 9.10843C13.4096 9.52337 13.0655 9.86747 12.6506 9.86747C12.2357 9.86747 11.8916 9.52337 11.8916 9.10843C11.8916 8.55181 11.4766 8.09639 10.9605 8.09639H10.8795V10.3431L11.8916 10.6973Z" fill="#777777"/>
<path d="M20.9393 0.465542C20.8583 0.283374 20.7166 0.131566 20.5243 0.0506024C20.4333 0.0202409 20.3422 0 20.241 0H16.1928C15.7778 0 15.4337 0.344096 15.4337 0.759036C15.4337 1.17398 15.7778 1.51807 16.1928 1.51807H18.4092L16.719 3.20819C17.1036 3.54217 17.4578 3.89639 17.7918 4.28096L19.4819 2.59084V4.80723C19.4819 5.22217 19.826 5.56627 20.241 5.56627C20.6559 5.56627 21 5.22217 21 4.80723V0.759036C21 0.657831 20.9798 0.566747 20.9393 0.465542Z" fill="#777777"/>
</svg>
