<svg width="16" height="21" viewBox="0 0 16 21" fill="none" xmlns="http://www.w3.org/2000/svg">
<path opacity="0.4" d="M15.0601 9.0225C15.1968 10.1467 15.1657 11.2851 14.9678 12.4002C14.4414 14.7327 11.8053 15.6088 11.8053 15.6088C11.5115 16.1197 11.1815 16.609 10.8177 17.0728C9.28067 19.0133 8.93868 17.5224 8.92331 17.4302C7.80509 18.6406 6.77909 19.5167 5.89527 19.9125C4.52649 20.51 3.06844 20.8775 1.57995 21C-0.40287 17.9605 0.042881 5.97146 0.042881 5.97146L7.96264 0L8.66201 0.130648L8.79264 0.153703L14.4837 1.21427C15.3258 3.26672 15.8055 5.44965 15.9016 7.66605C15.6288 8.12332 15.3329 8.59596 15.0601 9.0225Z" fill="#364E4C"/>
</svg>
