<svg width="26" height="29" viewBox="0 0 26 29" fill="none" xmlns="http://www.w3.org/2000/svg">
<path fill-rule="evenodd" clip-rule="evenodd" d="M4.0201 6.05217L6.15576 4.91739L6.40701 5.42174L14.1959 0.882609L13.6934 0.504348L13.0652 0.126087L12.814 0L3.24973e-05 7.43913V7.6913L3.64322 5.67391L4.0201 6.05217ZM4.02006 10.8435L10.1758 7.18695L10.427 7.6913L18.3415 3.15217L17.7134 2.7739L17.0853 2.52173L16.834 2.39564L0 12.1043V12.3565L3.64318 10.3391L4.02006 10.8435ZM12.1858 8.44784L4.02006 13.1131L3.64318 12.6087L0 14.7522V14.3739L18.8441 3.53045L19.0953 3.65654L19.7234 4.0348L20.3516 4.28697L12.4371 8.8261L12.1858 8.44784ZM4.02006 15.3826L14.1958 9.58261L14.4471 9.96087L22.3616 5.54783L21.7335 5.16957L21.1053 4.79131L20.8541 4.66522L0 16.7696V17.0217L3.64318 15.0044L4.02006 15.3826ZM16.2059 10.7174L4.02006 17.7783L3.64318 17.2739L0 19.4174V19.0392L22.8641 5.80003L23.241 6.0522L23.7435 6.30438L24.3716 6.68264L16.4571 11.2218L16.2059 10.7174ZM25.1254 7.18697L24.8741 6.9348L0 21.4348V21.687L3.64318 19.6696L4.02006 20.1739L16.2059 12.987L16.4571 13.4913L25.6279 8.32176V7.43915L25.1254 7.18697ZM3.64313 21.9391L1.6331 23.2L1.25622 22.9478L25.6279 8.95217V10.5913L16.4571 15.887L16.2058 15.3826L3.89438 22.4435L3.64313 21.9391ZM16.2058 17.7783L16.4571 18.2826L25.6278 12.8609V11.2217L3.26624 24.2087L3.64312 24.3348L5.65315 23.0739L6.03003 23.5783L16.2058 17.7783ZM7.78893 24.3348L5.65327 25.4696L5.27639 25.3435L25.628 13.6174V15.2565L16.4572 20.5522L16.2059 20.0478L8.04018 24.8391L7.78893 24.3348ZM7.66316 26.6044L9.79882 25.4696L10.0501 25.9739L16.2058 22.4435L16.4571 22.9478L25.6278 17.6522V15.887L7.28628 26.4783L7.66316 26.6044ZM9.67332 27.8652L9.29644 27.6131L25.6279 18.2826V19.9218L16.4572 25.2174L16.2059 24.7131L12.0602 27.1087L11.809 26.6044L9.67332 27.8652ZM11.6833 29L13.6933 27.7391L14.0702 28.2435L16.2059 27.1087L16.4571 27.613L25.6279 22.3174V20.5522L11.432 28.8739L11.6833 29ZM15.7034 1.63913L16.3315 2.01739L8.41701 6.55652L8.16576 6.05217L4.02006 8.44782L3.64318 7.94348L0 10.087V9.70869L14.824 1.13478L15.0752 1.38696L15.7034 1.63913Z" fill="white"/>
</svg>
