<svg width="68" height="16" viewBox="0 0 68 16" fill="none" xmlns="http://www.w3.org/2000/svg">
<path opacity="0.65" d="M63.0882 9.31934C59.7486 12.1017 52.6168 14.0912 47.5046 14.151C42.3924 14.2109 33.1253 15.8002 20.5373 15.6058C7.94929 15.4113 6.15796 10.6095 2.17887 7.48689C-1.08594 4.93267 0.136963 4.03888 0.682966 3.79954H0.70166C0.750205 3.7775 0.800169 3.75876 0.851237 3.74345H0.888648H1.08684L1.96195 3.67239L47.1119 0C51.6595 0.216903 56.5698 0.534777 61.8802 0.957364H61.8989V0.856396V0.961107C63.7642 1.28042 65.6096 1.70619 67.4263 2.23634C67.3889 2.94688 67.3552 3.62003 67.7441 4.13611C68.8062 5.54972 66.4278 6.54074 63.0882 9.31934Z" fill="#364E4C"/>
</svg>
