<svg width="93" height="24" viewBox="0 0 93 24" fill="none" xmlns="http://www.w3.org/2000/svg">
<path d="M0.505439 5.86716L4.76277 7.99267C6.32232 8.77128 8.21566 8.07768 8.90317 6.47588L10.6776 2.3417C11.8044 -0.283599 15.6048 -0.0359764 16.3814 2.71334L20.2972 16.5758C20.9674 18.9487 24.0393 19.5717 25.581 17.6473L31.2794 10.5349C32.3768 9.16524 34.4042 9.01054 35.6967 10.1978L48.7935 22.229C50.0683 23.4001 52.0632 23.268 53.1724 21.9389L55.8683 18.7087C56.9999 17.3527 59.1508 17.6025 59.9416 19.1817V19.1817C60.9126 21.1209 63.7385 20.9362 64.4488 18.8871L67.8023 9.21377C68.3762 7.55829 70.3951 6.94006 71.7976 7.99034V7.99034C73.21 9.04811 75.2437 8.41256 75.8024 6.73873L76.6309 4.25716C77.5679 1.45029 81.5589 1.51083 82.4104 4.34482L83.1053 6.65768C83.5711 8.20803 85.1727 9.11899 86.7433 8.72692L87.1729 8.61967C88.6009 8.26321 90.0786 8.98378 90.6771 10.3284L92.4945 14.4116" stroke="#5ED5A8" stroke-linecap="round"/>
</svg>
