<svg width="30" height="6" viewBox="0 0 30 6" fill="none" xmlns="http://www.w3.org/2000/svg">
<path d="M1.41138 3.33301C17.3998 5.88546 25.4896 5.74387 28.4057 5.5334C28.7779 5.50748 29.1309 5.35779 29.4082 5.10814C29.6856 4.8585 29.8715 4.52327 29.9364 4.15577L29.9747 3.94528C30.0193 3.69135 30.0048 3.43054 29.9322 3.18313C29.8597 2.93572 29.731 2.70839 29.5562 2.51882C29.3815 2.32925 29.1653 2.18254 28.9246 2.09013C28.6839 1.99772 28.4251 1.96207 28.1684 1.98598C20.6296 2.67863 6.75744 0.749958 1.92419 0.0190472C1.7017 -0.0148171 1.47467 -0.00344459 1.25669 0.0525173C1.03871 0.108479 0.834256 0.20786 0.655598 0.34471C0.476941 0.48156 0.327755 0.653077 0.216955 0.848957C0.106154 1.04484 0.0360292 1.26105 0.0107826 1.48468C-0.0380524 1.91373 0.0802019 2.34511 0.341003 2.68928C0.601805 3.03345 0.985113 3.26398 1.41138 3.33301Z" fill="#CDEAE8"/>
</svg>
