<svg width="332" height="369" viewBox="0 0 332 369" fill="none" xmlns="http://www.w3.org/2000/svg">
<path d="M27.8058 102.737C27.8058 102.737 40.5063 117.153 57.0191 119.964L32.0858 132.483L0 109.231L27.8058 102.737Z" fill="#43675E"/>
<path d="M32.0859 132.483C32.0859 132.483 35.5617 125.298 34.7615 119.964C34.7615 119.964 45.9888 113.386 48.9311 108.439L57.0192 119.964L32.0859 132.483Z" fill="#CEEBE9"/>
<path d="M204.398 196.37C204.398 196.37 225.523 206.051 238.626 199.025L242.635 210.149C242.635 210.149 225.523 213.992 216.434 211.287C207.344 208.582 203.064 206.981 203.064 206.981L204.398 196.37Z" fill="#43675E"/>
<path d="M204.398 196.37C204.398 196.37 210.964 192.235 216.832 191.988C216.832 191.988 214.961 199.006 218.305 203.1C218.305 203.1 206.815 202.652 203.064 206.962L204.398 196.37Z" fill="#CEEBE9"/>
<path d="M54.4009 166.175C54.4009 166.175 54.4009 162.571 58.6768 161.088C62.9527 159.605 64.9347 158.072 65.817 156.118C66.6993 154.164 65.817 152.161 65.817 152.161L69.3707 152.586C69.3707 152.586 68.9603 158.74 65.817 160.409C62.6737 162.078 57.8766 164.343 57.339 166.175L56.8056 168.012L54.4009 166.175Z" fill="#6FC29F"/>
<path d="M229.8 159.605V166.175L234.527 163.543C234.527 163.543 234.08 158.884 229.8 159.605Z" fill="#43675E"/>
<path d="M231.675 153.383C231.675 153.383 237.83 154.775 241.044 158.55L244.24 162.344L237.958 168.034C237.958 168.034 233.546 161.809 231.675 160.72L229.8 159.627L231.675 153.383Z" fill="#CEEBE9"/>
<path d="M127.752 41.0731L125.61 38.3037L122.61 39.6884L125.179 42.7651L127.752 41.0731Z" fill="#43675E"/>
<path d="M126.677 43.2583C126.677 43.2583 123.292 44.5785 120.797 43.2583C118.302 41.9381 117.465 40.4585 117.465 40.4585L120.083 38.3037C120.083 38.3037 120.973 42.0443 123.649 41.995C126.324 41.9457 127.752 41.0731 127.752 41.0731L126.677 43.2583Z" fill="#CEEBE9"/>
<path d="M194.021 64.2377L197.932 59.2717L193.652 55.3072L189.421 61.1344L194.021 64.2377Z" fill="#6FC29F"/>
<path d="M189.363 63.7938C189.363 63.7938 184.984 59.1844 186.006 54.4802C187.028 49.7759 189.289 47.6059 189.289 47.6059L194.796 50.5233C194.796 50.5233 188.374 54.0705 189.995 58.2739C191.616 62.4774 194.037 64.2377 194.037 64.2377L189.363 63.7938Z" fill="#CEEBE9"/>
<path d="M202.302 245.563L195.396 244.008L197.037 248.875C197.037 248.875 202.072 249.581 202.302 245.563Z" fill="#CEEBE9"/>
<path d="M42.8782 215.38C42.8782 215.38 49.2921 236.356 63.7243 240.612L57.4992 250.829C57.4992 250.829 42.9316 241.682 39.0085 233.628C35.0855 225.574 33.4893 221.572 33.4893 221.572L42.8782 215.38Z" fill="#43675E"/>
<path d="M42.8782 215.38C42.8782 215.38 50.5888 217.095 54.7375 220.957C54.7375 220.957 47.8517 224.371 46.8135 229.425C46.8135 229.425 39.4558 221.245 33.4893 221.572L42.8782 215.38Z" fill="#CEEBE9"/>
<path d="M49.7721 51.8587L45.9312 52.8299L48.1717 54.7989C48.1717 54.7989 50.8349 53.8846 49.7721 51.8587Z" fill="#43675E"/>
<path d="M53.6826 51.8739C53.6826 51.8739 53.7811 55.1592 52.0412 57.3141L50.3136 59.4879L46.0664 57.1889C46.0664 57.1889 49.0497 54.0704 49.4108 52.9741L49.7719 51.8777L53.6826 51.8739Z" fill="#CEEBE9"/>
<path opacity="0.5" d="M180.114 369C263.843 369 331.72 363.833 331.72 357.459C331.72 351.086 263.843 345.919 180.114 345.919C96.3838 345.919 28.5073 351.086 28.5073 357.459C28.5073 363.833 96.3838 369 180.114 369Z" fill="url(#paint0_linear_1_9088)"/>
<path d="M199.396 102.41L206.306 100.862L202.424 97.2356C202.424 97.2356 197.611 98.7379 199.396 102.41Z" fill="#43675E"/>
<path d="M192.416 102.19C192.416 102.19 192.416 96.3137 195.646 92.5541L198.863 88.7945L206.319 93.1042C206.319 93.1042 200.812 98.5331 200.106 100.46L199.396 102.399L192.416 102.19Z" fill="#CEEBE9"/>
<path d="M171.602 284.521C169.641 290.948 172.312 316.009 171.602 323.741C171.512 324.704 171.447 325.831 171.393 327.068C171.393 327.235 171.393 327.405 171.373 327.576C171.032 336.302 171.299 349.895 169.46 351.591C168.069 352.877 162.152 353.487 157.696 353.586C157.068 353.586 156.464 353.609 155.915 353.609C154.84 353.644 153.765 353.576 152.706 353.404C150.925 352.911 158.233 347.471 158.767 345.661C158.984 344.902 157.851 338.98 156.345 331.268L156.173 330.387C154.023 319.427 151.208 305.254 150.387 297.215C149.492 288.421 145.463 273.079 142.771 262.134C142.336 260.374 141.95 258.72 141.601 257.236C140.686 253.238 140.165 250.408 140.407 249.588C140.961 247.737 144.297 241.621 148.614 236.754C151.228 233.833 154.203 231.375 157.146 230.589C159.423 229.982 162.308 229.193 165.262 228.385L165.459 228.332C172.62 226.363 180.089 224.273 180.089 224.273C180.023 225.031 173.548 278.14 171.602 284.521Z" fill="#6FC29F"/>
<path d="M143.617 238.708C143.617 238.708 153.465 303.308 155.143 312.371C156.822 321.434 158.053 333.301 158.053 333.301" stroke="#1B232A" stroke-miterlimit="10"/>
<path d="M124.006 291.285C123.472 296.065 125.791 316.005 127.752 329.849C127.781 330.05 127.81 330.251 127.834 330.448C127.888 330.827 127.933 331.184 127.982 331.552C129.624 344.621 128.803 355.259 128.286 356.048C127.875 356.701 120.411 357.972 115.29 358.469H115.195L114.838 358.503H114.777C113.644 358.605 112.651 358.666 111.904 358.666C107.801 358.666 105.843 357.843 107.267 356.196C108.691 354.55 113.135 352.569 112.787 350.426C112.659 349.667 111.038 343.218 108.937 334.803C108.847 334.45 108.761 334.09 108.667 333.73C104.879 318.555 99.7208 297.716 98.7811 291.596C97.2874 281.873 96.5734 244.463 107.091 229.136L142.792 234.512L153.56 236.132V236.166C152.694 237.653 124.535 286.57 124.006 291.285Z" fill="#6FC29F"/>
<path d="M117.83 133.018C117.841 139.928 115.771 146.703 111.851 152.586H111.814C110.644 152.586 109.483 152.541 108.338 152.442C102.535 151.964 96.9197 150.299 91.898 147.568C86.8763 144.837 82.5739 141.108 79.3021 136.651C76.0304 132.195 73.871 127.121 72.9802 121.799C72.0894 116.476 72.4895 111.036 74.1515 105.874C74.3361 105.29 74.5618 104.713 74.7588 104.144C75.8673 101.246 77.3718 98.491 79.2358 95.9457L79.445 95.665C89.8025 96.1561 99.5604 100.306 106.704 107.257C113.847 114.208 117.83 123.43 117.83 133.018Z" fill="#6FC29F"/>
<path d="M116.877 233.105C116.877 233.105 89.4697 268.386 114.046 340.551" stroke="#1B232A" stroke-miterlimit="10"/>
<path d="M151.106 116.265C151.106 117.525 151.036 118.765 150.905 119.99C150.806 120.871 150.669 121.741 150.494 122.601C148.878 130.996 144.119 138.598 137.052 144.077C129.984 149.556 121.058 152.562 111.835 152.571C115.502 147.042 117.552 140.727 117.782 134.245C118.012 127.762 116.415 121.336 113.147 115.597C109.88 109.858 105.054 105.003 99.1443 101.508C93.2342 98.0137 86.4429 96.0001 79.4369 95.665C80.1099 94.7583 80.8321 93.8819 81.5913 93.0397C85.8068 88.354 91.2298 84.7241 97.3608 82.4842C103.492 80.2443 110.134 79.4664 116.675 80.2221C123.217 80.9778 129.448 83.2429 134.794 86.8087C140.14 90.3745 144.43 95.1265 147.269 100.627C147.552 101.174 147.819 101.731 148.069 102.293C150.074 106.718 151.106 111.467 151.106 116.265Z" fill="url(#paint1_linear_1_9088)"/>
<path d="M90.9436 124.012C90.9436 124.012 89.7125 136.865 91.2308 137.977C92.7491 139.088 93.7135 137.104 93.4755 133.895L90.9436 124.012Z" fill="#D27358"/>
<path d="M180.639 222.998C180.504 223.435 180.329 223.86 180.114 224.269C178.944 226.496 175.468 230.718 164.651 233.833C159.863 235.157 154.956 236.084 149.989 236.602C149.534 236.655 149.082 236.705 148.631 236.747C131.806 238.476 118.675 236.132 111.19 233.791C107.013 232.486 104.596 231.177 104.267 230.582C103.352 228.924 105.055 223.248 105.129 222.994C105.129 223.089 105.453 224.36 121.728 226.689H121.773C122.852 226.845 123.997 227 125.216 227.167L125.532 227.205C125.992 227.266 126.459 227.315 126.935 227.353H126.985C138.7 228.359 154.339 224.405 165.702 220.786C169.05 219.72 172.025 218.685 174.418 217.812C176.096 217.205 177.487 216.674 178.521 216.272C179.785 215.779 180.52 215.475 180.573 215.448C180.573 215.448 181.115 217.672 180.614 219.527C180.114 221.382 181.14 221.405 180.639 222.998Z" fill="url(#paint2_linear_1_9088)"/>
<path d="M180.335 217.391C179.593 219.071 175.411 221.943 165.526 224.978C160.15 226.593 154.679 227.925 149.14 228.969C141.034 230.571 132.703 230.971 124.461 230.153C115.253 229.208 108.913 226.902 107.074 225.673C105.335 224.508 105.023 223.59 105.129 222.994C105.174 222.696 105.326 222.421 105.56 222.213H105.597C105.975 222.33 109.541 223.298 130.604 224.834C142.833 225.726 156.133 222.179 165.739 218.734C170.386 217.099 174.918 215.199 179.31 213.043C179.669 213.399 179.965 213.805 180.188 214.246C180.391 214.626 180.53 215.033 180.598 215.452C180.708 216.108 180.617 216.78 180.335 217.391Z" fill="#354E4C"/>
<path d="M111.707 135.135C109.475 135.996 97.2707 142.385 97.2707 142.385C91.1154 130.848 90.5327 121.975 90.545 118.951C90.545 118.219 90.586 117.813 90.586 117.813L92.4572 116.675L98.0709 113.26C98.0709 113.26 111.44 120.567 114.292 125.082C117.144 129.596 113.956 134.27 111.707 135.135Z" fill="#F8AD88"/>
<path d="M105.035 128.507C105.035 128.507 107.427 125.271 110.045 125.677C112.663 126.083 112.971 129.031 112.487 131.929C112.003 134.828 107.275 135.697 102.663 138.041C98.0506 140.386 96.4789 143.227 96.4789 143.227C96.4789 143.227 113.714 137.419 114.046 134.881C114.379 132.343 116.127 125.533 113.308 124.368C110.488 123.204 107.091 122.711 105.778 124.406C104.464 126.102 105.035 128.507 105.035 128.507Z" fill="#D27358"/>
<path d="M105.56 127.016C104.198 128.018 104.132 132.589 104.132 132.589C103.587 131.251 103.202 129.862 102.983 128.447C102.634 126.14 100.656 121.618 97.7922 121.026C95.7158 120.601 92.2811 119.509 90.5453 118.94C90.5453 118.207 90.5863 117.801 90.5863 117.801L92.4575 116.663C96.0112 116.003 101.457 116.231 101.457 116.231C101.457 116.231 106.923 126.03 105.56 127.016Z" fill="#D27358"/>
<path d="M174.422 217.839C171.611 219.262 168.691 220.491 165.685 221.518C162.813 222.543 159.333 223.658 155.135 224.865C150.171 226.29 145.049 227.191 139.866 227.55C135.576 227.846 131.267 227.789 126.989 227.38H126.939C126.466 227.334 125.998 227.285 125.536 227.232L125.261 227.198H125.22C124.03 227.056 122.882 226.897 121.777 226.72H121.732C112.269 225.202 106.114 222.49 105.601 222.258H105.564L103.734 190.121C103.734 190.121 103.992 156.422 107.71 143.899C108.375 141.664 109.146 140.105 110.049 139.532C116.008 135.738 166.268 139.532 171.603 148.595C175.337 154.923 177.614 183.85 178.648 200.736C178.809 203.343 178.936 205.668 179.059 207.565C179.182 209.906 179.264 211.624 179.301 212.497C179.301 212.876 179.33 213.104 179.33 213.104C179.379 213.172 180.228 214.792 174.422 217.839Z" fill="#6FC29F"/>
<path d="M115.055 132.127C115.055 132.506 115.055 132.885 115.035 133.246L115.01 133.86L111.707 135.135C113.578 133.568 114.99 125.328 110.55 124.835C110.228 124.801 109.903 124.801 109.581 124.835C105.831 125.214 104.312 130.196 104.312 130.196L101.547 119.486C101.547 119.486 98.2637 120.226 90.5859 117.836C82.9081 115.446 79.6212 108.108 79.8961 103.161C80.1711 98.2144 84.8902 97.8084 86.0515 99.1249C87.2128 100.441 89.6175 103.161 89.6175 103.161C89.3817 102.126 89.3415 101.061 89.4985 100.013C89.5764 99.3108 89.6913 98.662 89.7898 98.184C98.382 101.224 105.552 106.948 110.057 114.364C110.498 115.083 110.908 115.817 111.288 116.568C113.609 121.09 114.887 126.008 115.043 131.011C115.051 131.383 115.055 131.755 115.055 132.127Z" fill="url(#paint3_linear_1_9088)"/>
<path d="M116.648 121.038C117.658 124.268 118.21 127.607 118.289 130.97C118.289 131.258 118.289 131.546 118.289 131.838C118.289 132.13 118.289 132.347 118.289 132.597" stroke="#231F20" stroke-miterlimit="10"/>
<path d="M118.285 131.838C118.285 132.707 115.035 133.246 115.035 133.246C115.688 128.064 112.442 119.076 112.442 119.076C105.158 102.854 89.7779 98.184 89.7779 98.184C86.3962 96.9889 82.8508 96.2355 79.244 95.9457C79.9789 94.9412 80.7678 93.9713 81.6077 93.0397C88.4158 93.8896 94.8981 96.2576 100.496 99.9395C106.093 103.622 110.638 108.507 113.739 114.175C114.127 114.88 114.491 115.599 114.83 116.329C115.548 117.86 116.155 119.433 116.648 121.038C117.752 124.224 118.273 130.97 118.285 131.838Z" fill="#354E4C"/>
<path d="M118.273 132.601C118.273 132.806 118.273 133.011 118.273 133.212C118.027 140.08 115.816 146.765 111.867 152.586H111.83C110.661 152.586 109.499 152.541 108.354 152.442C112.388 146.932 114.697 140.499 115.027 133.853L118.273 132.601Z" stroke="#231F20" stroke-miterlimit="10"/>
<path opacity="0.4" d="M110.045 114.364C108.174 112.168 104.662 107.3 102.31 105.544C101.21 103.317 100.324 99.4929 98.7648 98.184C94.6407 94.7279 94.2509 91.1998 94.2509 91.1998L104.744 94.6141L110.045 114.364Z" fill="#354E4C"/>
<path d="M148.085 102.285C138.962 110.196 127.287 115.126 114.846 116.322C113.673 116.436 112.489 116.515 111.297 116.561C111.046 116.075 110.788 115.594 110.513 115.123C110.369 114.865 110.217 114.611 110.061 114.364C111.292 114.338 112.524 114.277 113.755 114.175C126.241 113.174 138.026 108.412 147.301 100.62C147.392 100.79 147.478 100.965 147.56 101.139C147.732 101.515 147.913 101.902 148.085 102.285Z" fill="#CEEBE9"/>
<path d="M150.888 119.99C150.79 120.871 150.653 121.741 150.478 122.601C141.153 129.104 129.896 132.812 118.224 133.223C117.469 133.25 116.709 133.265 115.946 133.265H115.002C115.002 132.885 115.023 132.506 115.023 132.146C115.023 131.785 115.023 131.387 115.002 131.03C115.273 131.03 115.544 131.03 115.823 131.03C116.644 131.03 117.452 131.014 118.248 130.981C130.098 130.538 141.506 126.697 150.888 119.99Z" fill="#CEEBE9"/>
<path d="M105.56 131.838C105.56 131.838 106.717 128.458 108.765 127.388C110.813 126.318 111.974 127.802 111.797 129.82C111.797 129.82 111.264 127.965 109.705 128.542C108.145 129.118 105.56 131.838 105.56 131.838Z" fill="#D27358"/>
<path d="M93.3769 120.07C93.2955 120.205 93.2494 120.355 93.2425 120.509C93.2356 120.663 93.268 120.817 93.3371 120.957C93.4062 121.097 93.5101 121.221 93.6404 121.317C93.7706 121.413 93.9236 121.48 94.0868 121.512C95.3383 121.754 96.5261 122.22 97.5831 122.885C99.5036 124.171 99.7621 124.247 99.5077 122.965C99.2532 121.682 97.6159 120.267 96.0237 119.774C94.8829 119.429 93.8488 119.334 93.3769 120.07Z" fill="url(#paint4_linear_1_9088)"/>
<path d="M94.6792 124.176C94.9422 123.33 94.8111 122.553 94.3864 122.44C93.9617 122.327 93.4041 122.922 93.1411 123.767C92.8781 124.613 93.0092 125.39 93.434 125.503C93.8587 125.616 94.4162 125.022 94.6792 124.176Z" fill="#01010B"/>
<path d="M101.838 137.37C101.578 137.738 101.204 138.024 100.765 138.191C100.325 138.359 99.8409 138.399 99.3762 138.307C98.219 138.143 96.8361 137.385 95.4901 135.822C95.4901 135.822 98.9494 133.659 99.7619 131.929C100.155 132.447 100.519 132.982 100.853 133.534C101.645 134.805 102.425 136.501 101.838 137.37Z" fill="#7A2B18"/>
<path d="M101.838 137.37C101.578 137.738 101.204 138.024 100.764 138.191C100.325 138.359 99.8405 138.399 99.3758 138.307C99.1487 137.461 99.1657 136.575 99.4249 135.738C99.6842 134.9 100.177 134.141 100.853 133.534C101.645 134.805 102.425 136.501 101.838 137.37Z" fill="#EE7671"/>
<path opacity="0.65" d="M139.866 227.55C120.14 228.928 105.56 222.239 105.56 222.239L103.73 190.102C103.73 190.102 103.988 156.403 107.706 143.88C111.219 148.504 121.342 163.091 119.373 175.296C117.017 189.882 120.641 219.963 139.866 227.55Z" fill="#354E4C"/>
<path d="M104.518 203.802C104.518 203.802 113.299 191.616 115.872 174.006L113.821 163.429L104.226 198.563L104.518 203.802Z" fill="#354E4C"/>
<path d="M124.006 135.135C97.0292 147.408 80.7954 168.099 74.2256 177.758C72.5514 180.22 71.5091 181.965 71.0741 182.667C68.9361 186.127 66.4412 185.303 65.9036 182.667C65.366 180.03 67.3316 176.896 79.8845 158.44C87.2339 147.632 98.7609 140.757 107.083 136.918C110.346 135.378 113.732 134.069 117.21 133.003C121.815 130.15 124.006 135.135 124.006 135.135Z" fill="url(#paint5_linear_1_9088)"/>
<path opacity="0.65" d="M179.281 212.451C173.642 215.945 153.178 223.074 142.422 223.218C130.37 223.377 118.839 217.118 118.732 213.514C118.626 209.91 112.109 172.583 112.109 172.583C114.727 134.042 168.517 189.829 178.649 200.706C179.001 206.518 179.203 210.904 179.281 212.451Z" fill="#354E4C"/>
<path opacity="0.29" d="M124.005 135.135C97.0285 147.408 80.7948 168.099 74.225 177.758C78.4311 170.751 91.0496 150.287 97.9108 145.204C106.216 139.039 107.074 136.929 107.074 136.929C110.338 135.389 113.723 134.08 117.202 133.014C121.814 130.15 124.005 135.135 124.005 135.135Z" fill="#354E4C"/>
<path d="M72.7149 187.91L71.5987 188.475L64.4257 192.003C61.4834 187.553 62.6899 186.935 62.9566 182.735C63.1208 180.129 64.6842 178.941 65.8291 178.433C66.2302 178.248 66.659 178.12 67.1012 178.054C67.0725 178.114 66.6909 178.968 67.2161 180.759C67.7537 182.621 68.6893 182.367 71.0488 182.697C73.4084 183.027 72.7149 187.91 72.7149 187.91Z" fill="#CEEBE9"/>
<path opacity="0.65" d="M71.5987 188.475L64.4257 192.003C61.4834 187.553 62.6899 186.935 62.9566 182.735C63.1208 180.129 64.6842 178.941 65.8291 178.433C65.9153 179.765 66.26 182.701 67.6347 183.198C69.4238 183.847 71.8942 182.61 72.1486 185.391C72.2753 186.446 72.0851 187.513 71.5987 188.475Z" fill="#354E4C"/>
<path d="M82.0754 209.91C82.0754 209.91 81.5706 214.777 77.1511 213.172C77.0075 213.123 76.8598 213.062 76.7079 212.998C71.8944 210.9 66.5475 200.391 64.6763 194.583C63.9746 192.413 64.3069 190.789 65.1277 189.651C66.4941 187.72 69.2312 187.041 70.8275 187.041C73.3676 187.041 78.1811 192.732 78.1811 192.732L82.0754 209.91Z" fill="#6FC29F"/>
<path d="M135.512 217.417C129.96 219.049 108.704 219.622 96.7705 218.366C94.0129 218.074 91.7559 217.687 90.3033 217.194C90.0013 217.086 89.7079 216.959 89.4251 216.814C87.7837 215.98 87.6237 215.141 88.2638 214.352C89.0312 213.404 90.9845 212.524 93.0322 211.818C95.0371 211.146 97.0828 210.582 99.1588 210.13C99.1588 210.13 100.488 210.319 102.721 210.509C107.348 210.913 112.002 211.007 116.644 210.79C120.354 210.625 124.043 210.181 127.674 209.462L135.512 217.417Z" fill="url(#paint6_linear_1_9088)"/>
<path d="M98.5184 211.268C92.363 221.511 79.1331 216.579 76.7243 212.998C75.8585 211.712 75.8092 208.73 76.0924 205.441C76.54 201.17 77.2427 196.926 78.1975 192.728C78.1975 192.728 79.802 189.64 84.3528 168.38C88.9037 147.119 106.545 142.385 106.545 142.385C107.476 142.552 108.355 142.905 109.122 143.421C112.606 145.75 113.595 151.387 114.046 159.233C114.559 168.748 104.666 200.994 98.5184 211.268Z" fill="#6FC29F"/>
<path opacity="0.65" d="M78.5547 207.891L77.1677 213.172C77.0241 213.123 76.8763 213.062 76.7245 212.998C71.911 210.9 66.5641 200.391 64.6929 194.583C63.9912 192.413 64.3235 190.789 65.1443 189.651C66.4451 194.784 73.9177 204.344 73.9177 204.344L78.5547 207.891Z" fill="#354E4C"/>
<path opacity="0.65" d="M98.5184 211.268C92.363 221.511 79.1331 216.579 76.7243 212.998C75.8585 211.712 75.8092 208.73 76.0924 205.441C82.6581 208.286 90.816 207.641 96.4789 191.988C102.79 174.537 107.706 143.868 107.706 143.868C108.117 143.593 108.607 143.437 109.114 143.421C112.598 145.75 113.587 151.387 114.038 159.233C114.559 168.748 104.666 200.994 98.5184 211.268Z" fill="#354E4C"/>
<path opacity="0.29" d="M135.512 217.417C128.38 219.515 95.3343 219.861 89.4251 216.829C87.7837 215.995 87.6237 215.156 88.2638 214.367C92.1153 214.745 95.9877 214.911 99.8605 214.864C110.481 214.754 116.459 210.926 116.644 210.809L126.903 208.688L127.687 209.485L135.512 217.417Z" fill="#354E4C"/>
<path opacity="0.65" d="M102.72 210.528C102.66 210.838 102.565 211.142 102.437 211.435C101.637 213.248 99.9424 213.332 99.1135 215.471C98.7277 216.473 97.7265 217.527 96.7703 218.366C94.0127 218.074 91.7558 217.687 90.3031 217.194L93.0279 211.833C95.0329 211.161 97.0785 210.597 99.1545 210.145C99.1545 210.145 100.488 210.335 102.72 210.528Z" fill="#354E4C"/>
<path d="M89.4248 217.861C86.2158 217.406 82.0753 216.416 82.0753 216.416C82.0753 216.416 77.1305 216.128 74.9351 210.099C74.2926 208.239 73.9497 206.301 73.9174 204.348C73.507 192.728 78.1974 192.728 78.1974 192.728C78.1974 192.728 76.634 199.177 77.1264 204.302C77.2096 205.368 77.4342 206.421 77.7953 207.436C79.724 212.531 89.4248 217.861 89.4248 217.861Z" fill="#CEEBE9"/>
<path opacity="0.29" d="M89.4252 217.861C86.2162 217.406 82.0757 216.416 82.0757 216.416C82.0757 216.416 77.1309 216.128 74.9355 210.099C74.9355 210.099 73.7044 202.986 75.7562 200.27C76.1104 201.64 76.5627 202.987 77.1104 204.302C77.1935 205.368 77.4182 206.421 77.7793 207.436C79.7243 212.531 89.4252 217.861 89.4252 217.861Z" fill="#354E4C"/>
<path opacity="0.65" d="M90.4633 161.088L91.9857 160.409C96.6685 162.744 101.789 164.233 107.074 164.798L105.269 172.583H103.73L90.4633 161.088Z" fill="#354E4C"/>
<path d="M93.5121 174.685L94.9155 174.006L101.592 175.796L96.5774 188.403H94.9935L93.5121 174.685Z" fill="#28383B"/>
<path d="M96.2247 214.652C96.2247 214.69 96.2042 215.995 93.5122 217.398C93.1656 217.564 92.7932 217.68 92.4084 217.74C88.4813 218.446 78.8666 216.351 76.5932 206.704C74.0531 195.949 78.1977 192.735 78.1977 192.735C77.5699 194.655 78.0336 197.007 78.9733 199.367L79.08 199.629C79.2195 199.974 79.3713 200.319 79.5355 200.66C79.6586 200.93 79.7858 201.203 79.9253 201.48C80.728 203.042 81.6225 204.561 82.605 206.032C82.6062 206.043 82.6062 206.053 82.605 206.063C82.7814 206.328 82.9538 206.582 83.122 206.822C83.7489 207.67 84.516 208.423 85.3954 209.052C85.7606 209.325 86.1463 209.599 86.5485 209.864L86.5895 209.887C90.6438 212.539 96.2247 214.652 96.2247 214.652Z" fill="white"/>
<path opacity="0.65" d="M115.979 133.253C115.979 133.253 113.012 139.46 108.338 141.19C103.664 142.92 98.1615 146.657 98.1615 146.657C98.1615 146.657 106.664 141.243 109.779 145.204C112.893 149.164 119.455 142.806 119.549 138.041C119.644 133.276 117.206 133.011 117.206 133.011L115.979 133.253Z" fill="#354E4C"/>
<path d="M148.253 102.376C139.13 110.287 127.455 115.217 115.014 116.413C113.841 116.527 112.658 116.606 111.465 116.652C111.214 116.166 110.956 115.685 110.681 115.214C116.18 114.835 128.17 113.473 137.026 108.678C142.566 105.677 145.824 103.108 147.728 101.223C147.9 101.598 148.081 101.978 148.253 102.376Z" fill="#43675E"/>
<path opacity="0.56" d="M96.2246 214.652C96.2246 214.69 96.2041 215.995 93.5121 217.398C93.1655 217.564 92.7931 217.68 92.4083 217.74C89.948 217.635 87.5503 216.989 85.4153 215.854C83.2802 214.719 81.4697 213.128 80.1345 211.215C75.4564 204.602 77.7996 196.195 77.7996 196.195C77.7996 196.195 78.2099 197.515 78.9732 199.367L79.0799 199.629C79.2194 199.974 79.3712 200.319 79.5354 200.66C79.6585 200.93 79.7857 201.203 79.9252 201.48C80.6769 203.065 81.5733 204.588 82.6049 206.032C82.6061 206.043 82.6061 206.053 82.6049 206.063C83.3933 207.167 84.331 208.175 85.3953 209.06C85.757 209.357 86.1425 209.628 86.5484 209.872L86.5894 209.894C90.6437 212.539 96.2246 214.652 96.2246 214.652Z" fill="#354E4C"/>
<path opacity="0.4" d="M123.805 102.02C123.805 102.02 121.773 106.83 126.185 111.155C130.596 115.48 133.382 116.728 133.936 121.622C134.49 126.516 142.492 130.901 146.904 129.433C151.315 127.965 132.541 133.253 132.541 133.253L117.456 105.893L123.805 102.02Z" fill="#354E4C"/>
<path opacity="0.4" d="M151.106 116.265C151.106 117.525 151.036 118.765 150.904 119.99C150.806 120.871 150.669 121.741 150.494 122.601C149.638 127.126 147.854 131.458 145.237 135.363C137.539 136.288 128.803 133.291 132.968 129.941C138.811 125.245 141.302 107.52 134.761 101.64C129.837 97.228 130.247 88.5176 130.764 84.4393C137.961 88.1086 143.737 93.7658 147.285 100.62C147.568 101.166 147.835 101.724 148.085 102.285C150.085 106.714 151.112 111.466 151.106 116.265Z" fill="#354E4C"/>
<path d="M181.809 144.528C180.192 146.805 172.395 149.798 164.475 151.619C158.27 153.045 151.988 153.755 148.537 152.84C148.063 152.718 147.608 152.541 147.183 152.313C144.647 150.887 142.669 146.152 141.77 140.499C140.465 132.434 141.306 122.506 145.709 117.707C153.198 109.55 148.935 104.345 141.298 100.635C133.661 96.9245 135.684 89.7885 135.143 83.1153C134.601 76.4421 132.738 77.4247 129.061 75.5734C125.385 73.722 127.256 66.1801 120.173 57.0372C119.791 56.5478 119.418 56.0963 119.045 55.679C118.671 55.2617 118.4 54.9809 118.088 54.6699C112.056 48.7099 107.645 51.908 106.804 46.9496C105.868 41.4373 94.5544 41.0503 94.5544 41.0503C94.5544 41.0503 89.4209 41.7105 89.0228 39.6125C88.8628 38.7779 89.3183 38.3909 90.1636 38.3189C91.4398 38.205 93.5901 38.7931 95.8388 39.6125C99.5813 40.9783 107.739 41.8319 114.555 42.5337C121.371 43.2355 121.777 45.0452 121.777 49.9922C121.777 54.9392 126.456 61.1154 140.141 62.1018C152.078 62.9668 153.933 67.7924 152.111 72.03C151.839 72.6633 151.501 73.2706 151.102 73.8434C150.08 75.3192 149.411 76.7304 149.304 78.0734C149.267 78.3785 149.267 78.6864 149.304 78.9915C149.608 81.4347 152.037 83.6389 157.991 85.5737C167.885 88.787 161.2 96.5755 160.134 102.384C159.067 108.192 163.876 104.857 169.49 114.869C175.103 124.881 176.741 118.2 182.588 124.361C188.436 130.522 184.882 140.2 181.809 144.528Z" fill="url(#paint7_linear_1_9088)"/>
<path opacity="0.18" d="M170.844 138.701V146.626C168.849 148.425 166.721 150.093 164.475 151.619C160.487 154.331 155.402 156.904 151.709 155.898C150.847 155.663 149.768 154.574 148.537 152.84C146.576 150.075 144.232 145.678 141.77 140.499C140.465 132.434 141.307 122.506 145.71 117.707C153.199 109.55 148.935 104.345 141.298 100.635C133.662 96.9245 135.685 89.7885 135.143 83.1153C134.601 76.4421 132.738 77.4247 129.062 75.5734C125.385 73.722 127.256 66.1801 120.173 57.0372C119.792 56.5478 119.418 56.0963 119.045 55.679C122.196 57.8718 125.327 61.9614 126.887 66.3015C129.053 72.3715 133.407 71.2333 141.557 78.9991C149.707 86.7649 144.77 99.3032 149.181 101.022C153.593 102.74 154.397 109.929 153.995 115.244C153.593 120.56 157.737 126 164.414 127.851C171.09 129.702 170.844 138.701 170.844 138.701Z" fill="#354E4C"/>
<path d="M93.1015 214.853C90.3931 214.762 87.336 213.354 84.6727 211.025C80.0357 206.988 76.5846 200.182 78.1973 192.728C78.4336 193.703 78.7281 194.666 79.0796 195.611C80.9918 200.865 86.3511 211.45 98.5182 211.264C98.5182 211.268 100.521 215.099 93.1015 214.853Z" fill="#CEEBE9"/>
<path d="M90.4631 161.088C95.1 163.605 100.232 165.244 105.56 165.91L103.73 172.583C103.73 172.583 95.6254 171.267 91.0089 168.918C90.1469 168.479 89.4639 167.791 89.0638 166.96C88.6638 166.128 88.5687 165.199 88.793 164.313C89.1664 162.829 89.745 161.221 90.4631 161.088Z" fill="#CEEBE9"/>
<path d="M93.5118 174.685L89.4247 186.055L94.9932 188.403L99.86 176.54L93.5118 174.685Z" fill="#EE7671"/>
<path d="M147.195 153.922C143.03 156.251 127.908 155.174 119.701 149.957C119.209 149.646 118.737 149.316 118.298 148.975C110.526 142.905 116.312 140.325 117.219 133.011C118.126 125.696 107.555 119.562 106.217 107.039C104.879 94.5155 93.8488 94.8418 93.3687 88.7832C93.328 88.2629 93.2582 87.745 93.1594 87.2315C93.061 86.727 92.9378 86.23 92.7901 85.7444C92.7327 85.5509 92.6711 85.365 92.6096 85.1791C92.1218 83.7305 91.4321 82.3468 90.5578 81.0629C89.1667 79.0522 87.6853 77.9634 87.1026 78.559C86.5199 79.1546 86.881 80.0196 87.3447 81.0363C87.3504 81.0495 87.3573 81.0622 87.3652 81.0743C87.8864 82.2124 88.5758 83.4605 88.506 84.5531C88.3747 86.6549 85.297 85.3574 85.0303 81.5182C84.7635 77.6789 83.6925 68.2932 79.8885 63.7217C76.0845 59.1503 73.9178 54.1767 73.7865 50.0984C73.729 48.3381 74.242 47.1507 74.956 46.9648C75.8916 46.7106 77.1719 48.1826 77.9311 52.3253C79.1129 58.7937 86.5076 62.7316 88.1613 63.5396L88.4896 63.6952C94.1074 65.2999 90.3608 63.8166 97.9278 65.1785C105.495 66.5405 105.856 70.3683 103.714 72.7167C101.572 75.065 105.318 74.2 104.383 78.2783C104.284 78.697 104.218 79.1217 104.186 79.5492C103.919 82.9636 106.02 86.1541 114.034 89.6785C114.473 89.872 114.929 90.0578 115.405 90.2627C125.623 94.4662 124.174 100.885 123.103 106.454C122.032 112.024 128.848 112.524 130.325 119.987C131.803 127.449 136.739 127.392 147.31 131.834C157.881 136.277 151.594 151.448 147.195 153.922Z" fill="url(#paint8_linear_1_9088)"/>
<path opacity="0.18" d="M144.322 143.868L119.701 149.957C119.208 149.646 118.737 149.316 118.298 148.975C110.525 142.905 116.311 140.325 117.218 133.011C118.125 125.696 107.554 119.562 106.217 107.039C104.879 94.5155 93.8484 94.8417 93.3683 88.7831C93.3277 88.2629 93.2578 87.745 93.1591 87.2315C94.7225 91.7081 99.614 92.0002 105.113 95.665C111.17 99.7015 113.759 104.254 111.814 111.033C109.869 117.813 120.177 128.458 130.337 131.14C140.498 133.822 144.322 143.868 144.322 143.868Z" fill="#354E4C"/>
<path d="M184.882 207.064C181.952 210.202 155.825 218.468 144.368 220.384C143.093 220.618 141.797 220.745 140.498 220.763C133.009 220.638 123.029 214.841 123.029 214.841C123.029 214.841 111.576 146.687 109.056 143.383C109.056 143.383 108.113 141.937 109.971 142.791C109.971 142.791 129.065 151.827 137.625 152.309C138.048 152.336 138.471 152.336 138.893 152.309C146.645 151.816 183.278 142.787 183.278 142.787C183.278 142.787 187.82 166.896 187.41 190.258C187.41 190.258 188.231 203.483 184.882 207.064Z" fill="url(#paint9_linear_1_9088)"/>
<path d="M144.368 220.388C143.093 220.622 141.797 220.749 140.498 220.767C133.009 220.642 123.029 214.845 123.029 214.845C123.029 214.845 111.576 146.687 109.056 143.383C109.056 143.383 108.113 141.937 109.971 142.791C109.971 142.791 129.065 151.827 137.625 152.309C137.625 152.309 147.437 208.988 144.368 220.388Z" fill="url(#paint10_linear_1_9088)"/>
<path d="M90.643 176.142C91.4244 173.73 91.1885 171.533 90.1159 171.236C89.0434 170.939 87.5405 172.654 86.759 175.067C85.9776 177.48 86.2136 179.676 87.2861 179.973C88.3586 180.27 89.8615 178.555 90.643 176.142Z" fill="#CEEBE9"/>
<path d="M146.243 160.409L181.808 153.053L182.588 164.4L147.58 172.583L146.243 160.409Z" fill="#CEEBE9"/>
<path opacity="0.65" d="M181.809 153.053L179.601 152.313L144.306 159.483L145.845 172.211L147.581 172.583L146.243 160.409L181.809 153.053Z" fill="#354E4C"/>
<path d="M159.096 210.058C158.395 210.144 157.683 210.095 157.005 209.912C156.327 209.73 155.697 209.419 155.156 208.998C154.616 208.578 154.176 208.058 153.865 207.471C153.554 206.885 153.379 206.245 153.351 205.592L151.709 182.989C151.615 181.622 152.076 180.271 153.003 179.202C153.93 178.134 155.256 177.423 156.72 177.211C157.42 177.125 158.132 177.174 158.81 177.357C159.489 177.539 160.118 177.85 160.659 178.271C161.2 178.691 161.64 179.211 161.951 179.798C162.262 180.384 162.437 181.024 162.465 181.677L164.106 204.28C164.202 205.647 163.741 206.998 162.813 208.067C161.886 209.136 160.56 209.846 159.096 210.058Z" fill="#28383B"/>
<path d="M160.326 208.646C159.686 208.725 159.035 208.68 158.415 208.514C157.795 208.347 157.219 208.063 156.725 207.679C156.23 207.296 155.827 206.821 155.542 206.285C155.257 205.749 155.096 205.164 155.069 204.568L153.576 183.922C153.48 182.668 153.898 181.426 154.746 180.442C155.594 179.458 156.811 178.805 158.155 178.611C158.796 178.532 159.447 178.576 160.068 178.743C160.689 178.909 161.265 179.194 161.76 179.578C162.254 179.962 162.657 180.438 162.942 180.974C163.226 181.511 163.386 182.096 163.412 182.693L164.898 203.354C164.989 204.605 164.57 205.842 163.724 206.821C162.878 207.801 161.666 208.452 160.326 208.646Z" fill="#EE7671"/>
<path d="M179.202 203.764C178.569 203.842 177.924 203.797 177.31 203.632C176.696 203.467 176.126 203.185 175.637 202.805C175.147 202.425 174.749 201.954 174.467 201.424C174.185 200.893 174.025 200.314 173.999 199.723L172.526 179.271C172.443 178.039 172.86 176.822 173.695 175.858C174.531 174.894 175.725 174.253 177.044 174.059C177.677 173.98 178.321 174.025 178.935 174.189C179.549 174.354 180.119 174.635 180.608 175.015C181.097 175.395 181.496 175.865 181.777 176.396C182.059 176.926 182.217 177.505 182.243 178.095L183.716 198.532C183.804 199.767 183.389 200.988 182.555 201.956C181.72 202.923 180.524 203.568 179.202 203.764Z" fill="#28383B"/>
<path d="M180.286 202.485C179.707 202.557 179.118 202.516 178.557 202.365C177.996 202.215 177.475 201.958 177.027 201.61C176.579 201.263 176.215 200.833 175.957 200.348C175.7 199.863 175.554 199.334 175.53 198.794L174.184 180.098C174.108 178.968 174.49 177.851 175.257 176.967C176.023 176.084 177.119 175.496 178.329 175.318C178.908 175.247 179.497 175.287 180.058 175.438C180.62 175.589 181.141 175.846 181.588 176.193C182.036 176.541 182.4 176.971 182.658 177.456C182.915 177.941 183.061 178.47 183.085 179.01L184.431 197.705C184.507 198.836 184.125 199.952 183.358 200.836C182.592 201.72 181.497 202.308 180.286 202.485Z" fill="#EE7671"/>
<path d="M67.397 30.7086C66.0551 32.0478 63.3262 34.6427 58.7795 34.123C57.0168 33.8858 55.3207 33.3343 53.7854 32.4993L53.5023 32.3551C48.578 29.6995 41.6471 20.8904 36.8911 13.6178C36.4424 12.935 36.0156 12.2673 35.6107 11.6147C35.6107 11.6147 35.582 11.5692 35.5656 11.5465C33.4646 8.17003 31.9791 5.3437 31.6098 3.95898C30.8506 1.17438 32.2294 0.32458 33.3661 0.0817806C33.9685 -0.0430092 34.5953 -0.0247374 35.1881 0.134893C38.4662 0.980899 41.6553 2.09825 44.7166 3.47338C44.7524 3.48679 44.7867 3.5033 44.8191 3.5227C55.275 8.22314 62.7394 14.9494 66.8389 18.1362C66.9497 18.2272 67.0646 18.3145 67.1713 18.3941L67.2287 18.4397C72.3418 22.4345 69.1902 28.9218 67.397 30.7086Z" fill="url(#paint11_linear_1_9088)"/>
<path opacity="0.15" d="M67.2287 18.4511L64.1305 17.5747C58.5985 11.9166 52.0654 7.16988 44.8109 3.5379C55.275 8.22317 62.7394 14.9495 66.8389 18.1362C66.9497 18.2273 67.0646 18.3145 67.1712 18.3942L67.2287 18.4511Z" fill="#43675E"/>
<path opacity="0.15" d="M58.7833 34.1381C57.0206 33.901 55.3245 33.3495 53.7893 32.5144L53.5061 32.3703C48.5819 29.7147 41.6509 20.9056 36.8949 13.633C37.3381 14.1527 51.6924 30.7693 57.2035 33.1442C57.7881 33.3888 58.3226 33.7251 58.7833 34.1381Z" fill="#43675E"/>
<path d="M67.3971 30.7086C65.6162 32.4803 61.41 36.4599 53.7897 32.5144C51.6353 29.6502 52.2385 25.0711 55.468 21.5392C58.6975 18.0072 63.4289 16.7021 66.839 18.1476C66.9498 18.2386 67.0647 18.3259 67.1714 18.4055C72.3665 22.3852 69.1986 28.9142 67.3971 30.7086Z" fill="#354E4C"/>
<path d="M66.7111 30.3187C69.7984 26.9399 70.0108 22.412 67.1854 20.2054C64.3599 17.9988 59.5666 18.949 56.4792 22.3278C53.3919 25.7065 53.1795 30.2344 56.005 32.441C58.8304 34.6477 63.6237 33.6974 66.7111 30.3187Z" fill="#1B232A"/>
<path d="M49.4109 36.4903C49.1647 36.293 39.4515 28.3451 45.4099 22.0058L50.2603 26.7973L51.3067 27.833C51.3067 27.833 47.9172 30.9021 49.4109 36.4903Z" fill="#6EC5A2"/>
<path d="M71.648 14.8242C65.5501 13.6558 62.3576 16.9032 62.3576 16.9032L61.2373 16.0117L55.8329 11.6868C62.456 5.93551 71.4264 14.608 71.6439 14.8242H71.648Z" fill="#6EC5A2"/>
<path d="M45.6151 15.9206C47.954 15.9206 49.85 14.1677 49.85 12.0055C49.85 9.8432 47.954 8.09033 45.6151 8.09033C43.2763 8.09033 41.3802 9.8432 41.3802 12.0055C41.3802 14.1677 43.2763 15.9206 45.6151 15.9206Z" fill="white"/>
<path d="M124.457 293.793C124.457 293.831 124.457 293.873 124.457 293.914C124.367 295.728 121.584 298.197 117.953 299.848C114.321 301.498 102.265 301.578 99.4127 298.118C98.1817 296.6 97.8657 295.341 97.919 294.385C97.9363 293.678 98.19 292.995 98.6454 292.427C98.6454 292.427 101.108 293.095 106.898 294.905C112.688 296.714 124.01 291.281 124.01 291.281C124.01 291.281 124.518 292.063 124.457 293.793Z" fill="white"/>
<path opacity="0.56" d="M124.457 293.793C121.076 295.993 114.03 298.11 107.842 297.788C100.213 297.386 98.0467 294.563 97.9154 294.373C97.9326 293.667 98.1864 292.983 98.6417 292.416C98.6417 292.416 101.104 293.084 106.894 294.893C112.684 296.703 124.006 291.27 124.006 291.27C124.006 291.27 124.519 292.063 124.457 293.793Z" fill="#354E4C"/>
<path d="M98.2846 287.078C98.2846 287.078 102.437 291.524 110.64 292.101C118.843 292.678 125.175 288.102 125.175 288.102C125.175 288.102 127.227 290.288 122.048 293.008C116.87 295.728 112.869 297.211 105.56 295.663C98.2517 294.115 96.2697 290.788 98.2846 287.078Z" fill="#CEEBE9"/>
<path d="M97.911 258.409L99.2324 257.68C99.6081 257.474 100.031 257.351 100.467 257.322C100.903 257.293 101.34 257.359 101.744 257.513C108.146 259.882 114.916 261.29 121.798 261.687C122.045 261.7 122.287 261.761 122.507 261.867C122.727 261.972 122.92 262.119 123.075 262.297C123.23 262.476 123.342 262.683 123.405 262.905C123.468 263.126 123.479 263.357 123.439 263.583L121.482 274.972C121.408 275.397 121.219 275.797 120.932 276.136C120.645 276.474 120.269 276.74 119.84 276.907L117.854 277.666L97.911 258.409Z" fill="#354E4C"/>
<path d="M128.286 356.041C127.875 356.693 120.411 357.964 115.29 358.461H115.195C115.027 358.484 114.908 358.491 114.838 358.495H114.777L116.829 358.844C114.911 359.101 112.979 359.256 111.043 359.307C107.961 359.307 106.007 358.875 105.63 358.013C105.462 357.634 105.593 357.186 106.04 356.651C107.575 354.876 112.352 352.748 111.978 350.445C111.839 349.622 110.095 342.694 107.834 333.635C107.834 333.635 108.129 333.673 108.654 333.722C110.932 333.927 117.567 334.295 123.591 332.326C125.083 331.852 126.509 331.215 127.838 330.429C127.892 330.808 127.937 331.165 127.986 331.533C129.64 344.614 128.799 355.251 128.286 356.041Z" fill="#354E4C"/>
<path d="M107.829 333.654C107.829 333.654 106.598 333.32 107.14 332.516C107.682 331.711 116.098 333.013 122.114 331.343C128.13 329.674 127.797 328.308 128.462 328.437C129.127 328.566 129.664 329.344 128.335 330.129C127.005 330.915 124.966 335.532 107.829 333.654Z" fill="#CEEBE9"/>
<path opacity="0.56" d="M127.982 331.544C129.623 344.614 128.803 355.251 128.286 356.041C127.851 356.716 119.877 358.055 114.744 358.514C117.953 356.132 121.47 351.849 120.735 344.728C119.438 332.095 111.605 309.897 115.852 283.626C120.099 257.354 132.804 237.262 132.804 237.262L143.617 237.156L153.564 236.143C153.564 236.143 124.543 286.498 124.006 291.285C123.468 296.073 125.791 316.005 127.752 329.849C127.834 330.414 127.908 330.979 127.982 331.544Z" fill="#354E4C"/>
<path d="M45.6154 14.7711C47.2676 14.7711 48.6069 13.5329 48.6069 12.0055C48.6069 10.4781 47.2676 9.23987 45.6154 9.23987C43.9632 9.23987 42.6239 10.4781 42.6239 12.0055C42.6239 13.5329 43.9632 14.7711 45.6154 14.7711Z" fill="#1B232A"/>
<path d="M44.811 3.53787C38.3684 4.67599 36.2469 8.57216 35.6026 11.6185C35.6026 11.6185 35.5739 11.573 35.5575 11.5502C33.4565 8.17381 31.971 5.34748 31.6016 3.96277C30.8425 1.17816 32.2213 0.328364 33.358 0.0855648C33.9604 -0.039225 34.5872 -0.0209532 35.18 0.138677C38.4581 0.984683 41.6472 2.10203 44.7084 3.47717L44.811 3.53787Z" fill="#6EC5A2"/>
<path opacity="0.65" d="M142.632 156.915C142.632 156.915 144.175 162.408 141.667 165.375C139.16 168.342 136.829 170.648 139.866 176.498C142.903 182.348 142.254 187.045 137.363 189.845C132.471 192.644 130.387 196.863 133.53 201.882C136.673 206.901 120.456 195.118 122.721 189.613C124.986 184.108 131.646 176.752 131.659 169.833C131.671 162.913 134.761 159.787 134.761 159.787L142.632 156.915Z" fill="#354E4C"/>
<path d="M180.733 196.347C180.366 196.393 179.993 196.367 179.637 196.272C179.281 196.176 178.95 196.013 178.666 195.793C178.382 195.572 178.151 195.3 177.988 194.992C177.824 194.684 177.732 194.349 177.717 194.006L176.864 182.151C176.814 181.433 177.055 180.723 177.542 180.162C178.029 179.6 178.725 179.227 179.494 179.116C179.861 179.071 180.235 179.097 180.591 179.193C180.946 179.288 181.277 179.451 181.56 179.672C181.844 179.892 182.075 180.164 182.239 180.472C182.402 180.779 182.495 181.114 182.51 181.457L183.364 193.312C183.415 194.03 183.174 194.74 182.687 195.302C182.2 195.864 181.503 196.237 180.733 196.347Z" fill="white"/>
<path d="M69.7236 24.521C68.3646 23.5006 66.6323 23.004 64.8872 23.1348C63.1422 23.2656 61.5189 24.0137 60.3555 25.2232C59.1921 26.4327 58.5782 28.0105 58.6415 29.6281C58.7049 31.2456 59.4407 32.7782 60.6958 33.9067C60.6958 33.9067 65.9319 39.2976 80.7253 41.995C80.7253 41.995 80.0933 35.8036 70.8767 25.7274C70.5491 25.2818 70.1616 24.8764 69.7236 24.521Z" fill="url(#paint12_linear_1_9088)"/>
<path opacity="0.65" d="M162.148 148.022C162.572 149.406 163.563 150.582 164.91 151.3C167.233 152.601 166.166 155.295 170.655 156.915C175.144 158.535 177.828 158.292 176.047 162.822C174.266 167.351 185.633 160.056 182.576 155.424C179.519 150.792 168.123 146.744 167.856 146.657C167.59 146.569 162.144 145.01 162.148 148.022Z" fill="#354E4C"/>
<path d="M67.0972 25.8374C66.7057 25.5136 66.249 25.2642 65.7533 25.1036C65.2575 24.9429 64.7324 24.8741 64.2079 24.901C63.6834 24.928 63.1697 25.0502 62.6963 25.2606C62.2229 25.4711 61.7989 25.7657 61.4486 26.1277C61.0984 26.4896 60.8286 26.9118 60.6548 27.3701C60.481 27.8284 60.4066 28.3139 60.4357 28.7988C60.4649 29.2837 60.5971 29.7586 60.8247 30.1963C61.0524 30.634 61.371 31.0259 61.7626 31.3497C61.7626 31.3497 64.8402 34.5175 73.5275 36.0995C73.5275 36.0995 73.1582 32.4651 67.7414 26.5469C67.5596 26.2865 67.3431 26.0481 67.0972 25.8374Z" fill="white"/>
<path d="M124.543 77.7851C123.029 80.8201 114.284 78.0317 111.441 70.1218C110.419 67.2765 109.011 65.6603 107.53 64.4729C106.96 64.0224 106.366 63.5995 105.749 63.2058C103.697 61.8666 101.69 60.7512 100.587 57.7618C98.3584 51.7487 94.0824 52.4885 90.1881 50.4285C89.2786 49.9674 88.4645 49.3611 87.7835 48.6378C86.4416 47.1621 86.5934 45.895 86.5934 45.895C87.4141 48.3685 92.3877 49.8518 96.2204 50.5916C100.053 51.3314 100.41 53.9718 101.034 56.4453C101.658 58.9189 105.043 59.9849 112.524 64.5184C120.005 69.0519 126.057 74.735 124.543 77.7851Z" fill="url(#paint13_linear_1_9088)"/>
<path d="M214.961 162.818C207.874 167.268 212.557 172.211 206.939 174.685C202.129 176.802 200.168 178.262 199.45 180.474C199.328 180.86 199.24 181.255 199.187 181.654C198.777 184.571 192.236 183.103 192.769 178.585C193.274 174.294 197.037 172.962 196.438 169.343C196.408 169.145 196.366 168.949 196.311 168.755C195.174 164.677 191.3 162.936 194.374 158.554C197.447 154.172 196.38 151.452 193.705 151.346C191.029 151.239 192.232 155.648 188.891 156.938C185.551 158.228 184.919 153.273 184.919 153.273C184.919 153.273 183.811 144.289 183.278 142.814L173.491 145.173C173.491 145.173 171.472 144.999 170.384 143.614C169.867 142.962 169.563 142.032 169.773 140.719C169.87 140.147 170.007 139.58 170.183 139.024C171.028 136.22 172.473 135.158 172.473 135.158C172.473 135.158 172.998 134.615 173.885 133.822C176.457 131.523 182.063 127.13 186.634 127.862C192.79 128.853 192.65 131.159 194.924 127.783C195.744 126.595 198.284 125.241 201.313 124.41C206.898 122.874 214.034 123.116 214.571 129.456C215.199 137.112 212.47 139.456 213.816 142.07C213.9 142.235 213.998 142.393 214.108 142.544C214.642 143.265 215.294 143.905 216.04 144.441C218.265 146.141 219.68 148.842 220.066 151.744C220.591 155.769 219.098 160.219 214.961 162.818Z" fill="url(#paint14_linear_1_9088)"/>
<path d="M201.194 149.346C198.518 156.391 194.776 157.135 195.859 161.088C196.909 164.961 196.474 169.165 196.454 169.339C196.424 169.141 196.382 168.945 196.327 168.751C195.19 164.673 191.316 162.932 194.39 158.55C197.463 154.168 196.396 151.448 193.721 151.342C191.045 151.236 192.248 155.644 188.907 156.934C185.567 158.224 184.935 153.269 184.935 153.269C184.935 153.269 183.827 144.286 183.294 142.81L173.507 145.169C173.507 145.169 171.488 144.995 170.4 143.61C170.103 142.096 170.03 140.552 170.183 139.02C170.404 137.176 171.114 135.605 172.547 134.6C172.547 134.6 173.059 134.255 173.884 133.819C175.969 132.707 180.04 130.985 183.027 132.62C187.172 134.896 185.3 138.735 190.512 139.232C195.723 139.729 203.865 142.301 201.194 149.346Z" fill="url(#paint15_linear_1_9088)"/>
<path d="M99.4131 258.511C102.454 259.998 109.139 262.65 118.967 263.181C119.231 263.196 119.489 263.262 119.724 263.375C119.959 263.488 120.166 263.645 120.332 263.836C120.497 264.027 120.618 264.248 120.685 264.485C120.752 264.722 120.765 264.969 120.723 265.211L118.753 276.463C118.679 276.893 118.433 277.282 118.066 277.554C117.698 277.827 117.233 277.962 116.763 277.935C112.425 277.677 100.997 276.592 95.5516 272.116C95.3336 271.934 95.1653 271.707 95.0605 271.454C94.9556 271.201 94.9172 270.928 94.9484 270.659C95.1659 268.542 95.8019 262.923 96.6965 259.634C96.7661 259.377 96.8979 259.138 97.0821 258.935C97.2662 258.732 97.4979 258.57 97.7595 258.462C98.0211 258.354 98.3059 258.302 98.5924 258.311C98.8789 258.319 99.1595 258.388 99.4131 258.511Z" fill="#CEEBE9"/>
<path d="M155.131 149.346L143.419 151.695C143.04 151.768 142.689 151.932 142.4 152.171C142.112 152.41 141.897 152.716 141.778 153.057C141.581 153.66 141.634 154.532 142.246 155.773C144.027 159.396 140.239 161.084 138.368 162.818C136.497 164.548 133.698 166.779 137.379 175.576C140.1 182.067 137.026 184.279 133.723 186.229C132.54 186.87 131.414 187.595 130.354 188.399C126.607 191.491 126.476 191.859 132.984 201.006C139.492 210.152 125.54 217.444 117.485 208.68C109.43 199.917 117.251 189.143 120.058 185.558C120.649 184.823 121.139 184.024 121.519 183.179C122.783 180.265 122.179 176.957 118.289 171.839C113.312 165.288 116.447 156.141 124.034 154.532C128.778 153.527 129.566 152.173 129.492 151.296C129.454 150.978 129.311 150.679 129.082 150.439C121.211 148.607 109.988 142.806 109.988 142.806C110.176 142.356 110.405 141.922 110.673 141.509C111.925 139.638 114.912 136.558 120.288 138.291C127.777 140.704 127.777 138.967 130.317 138.386C132.857 137.806 134.859 137.248 139.591 140.082C144.322 142.916 146.76 136.99 151.081 138.705C152.472 139.255 153.383 140.549 153.982 142.055C155.271 145.226 155.131 149.346 155.131 149.346Z" fill="url(#paint16_linear_1_9088)"/>
<path opacity="0.31" d="M172.264 166.221C172.264 166.221 168.919 166.858 170.081 172.871C171.242 178.884 174.632 182.511 180.159 182.356C185.687 182.2 183.114 176.085 183.114 176.085C183.114 176.085 177.127 175.352 174.907 172.056C172.687 168.759 172.264 166.221 172.264 166.221Z" fill="#354E4C"/>
<path d="M177.126 170.853C177.094 172.124 178.152 172.795 179.392 173.38C181.267 174.26 183.557 174.939 183.138 177.173C182.44 180.888 177.233 181.013 174.172 178.035C171.111 175.057 168.837 168.755 171.373 167.033C173.909 165.31 171.086 164.684 174.172 162.461C176.97 160.443 179.625 159.726 178.558 157.624C178.432 157.379 178.281 157.145 178.107 156.926C176.055 154.271 172.867 156.744 170.852 154.1C168.837 151.456 169.371 149.851 167.364 149.851C165.357 149.851 164.491 149.054 164.118 148.246C163.745 147.438 157.913 148.747 157.913 148.747C157.913 148.747 156.453 144.111 159.235 142.533C161.475 141.262 162.563 141.471 162.928 140.059C163.024 139.616 163.069 139.165 163.063 138.713C163.096 135.761 167.643 132.055 171.656 134.539L171.755 134.604C175.587 137.066 170.967 140.442 172.986 142.616C175.005 144.79 176.95 143.705 177.217 145.56C177.483 147.415 179.002 150.492 181.008 150.359C181.897 150.28 182.794 150.405 183.618 150.723C184.442 151.042 185.168 151.544 185.732 152.184C186.61 153.193 187.291 154.726 187.508 157.033C188.091 163.19 177.213 167.663 177.126 170.853Z" fill="url(#paint17_linear_1_9088)"/>
<path d="M172.3 288.273C172.236 288.845 172.026 289.395 171.689 289.878C170.265 292.017 162.957 294.491 156.805 294.81C150.654 295.128 147.778 292.716 148.249 291.395C148.721 290.075 148.964 289.707 149.764 289.624C150.564 289.54 166.252 290.037 171.689 286.164C172.173 286.77 172.392 287.524 172.3 288.273Z" fill="white"/>
<path opacity="0.56" d="M172.301 288.273C171.439 289.032 169.744 290.731 161.902 292.264C153.892 293.831 148.25 291.399 148.25 291.399C148.738 290.071 148.964 289.711 149.764 289.627C150.564 289.544 166.252 290.041 171.689 286.168C172.173 286.773 172.391 287.525 172.301 288.273Z" fill="#354E4C"/>
<path d="M148.647 286.828C148.647 286.828 160.137 292.139 171.837 283.626C171.837 283.626 172.949 284.931 171.16 286.828C169.37 288.725 165.899 290.785 159.214 291.285C152.529 291.786 148.955 290.709 148.159 289.555C147.363 288.402 148.647 286.828 148.647 286.828Z" fill="#CEEBE9"/>
<path d="M171.406 327.068C171.406 327.235 171.406 327.405 171.385 327.576C171.044 336.302 171.311 349.895 169.473 351.591C168.082 352.877 162.164 353.487 157.708 353.586C157.08 353.586 156.477 353.609 155.927 353.609C155.492 353.821 155.213 353.95 155.164 353.988C154.168 354.013 153.172 353.94 152.193 353.772C151.68 353.632 151.881 353.097 152.459 352.361C153.994 350.399 158.204 346.977 158.615 345.585C158.845 344.8 157.65 338.525 156.058 330.368L156.202 330.403C157.117 330.604 162.283 331.613 166.9 329.989C168.648 329.388 170.199 328.382 171.406 327.068Z" fill="#354E4C"/>
<path d="M156.03 330.361C156.03 330.361 154.868 329.981 155.209 329.496C155.55 329.01 158.648 330.053 161.91 329.928C165.172 329.803 170.171 327.5 171.48 325.531C172.789 323.562 172.444 325.933 171.709 326.723C170.975 327.512 168.152 332.58 156.03 330.361Z" fill="white"/>
<path opacity="0.56" d="M171.603 323.741C171.501 324.837 171.431 326.142 171.373 327.576C171.033 336.302 171.3 349.895 169.461 351.591C168.07 352.877 162.153 353.487 157.696 353.586C159.806 351.731 162.621 348.821 163.679 345.741C165.473 340.551 158.144 308.664 157.524 297.329C156.904 285.993 151.094 240.423 151.094 240.423L153.556 236.136L154.787 235.919L164.894 233.753L168.755 232.52C175.916 230.551 180.098 224.258 180.098 224.258C180.098 224.258 173.532 278.087 171.587 284.513C169.642 290.94 172.313 315.998 171.603 323.741Z" fill="#354E4C"/>
<path opacity="0.18" d="M90.541 81.0287C89.1499 79.0181 87.6685 77.9293 87.0858 78.5249C86.5031 79.1205 86.8642 79.9855 87.3279 81.0022C87.0652 80.5128 84.2913 75.2812 84.48 71.9959C84.6729 68.5815 81.2792 63.1223 81.1766 62.9554C81.3038 63.1033 83.963 66.2256 84.6154 68.646C85.2802 71.1195 86.3512 74.2076 87.9557 75.5658C89.5602 76.9239 90.4835 80.7859 90.541 81.0287Z" fill="#354E4C"/>
<path opacity="0.18" d="M114.034 89.6785C113.623 89.5646 102.096 86.4007 99.8599 81.0287C97.5824 75.5582 97.1761 71.1119 93.1013 68.7636C89.3096 66.5784 86.9172 64.9243 86.6053 64.7043C87.1183 64.9888 92.6499 68.0276 94.993 68.1452C97.4552 68.2666 102.901 73.0771 102.983 76.3017C103.073 77.4663 103.498 78.5874 104.214 79.5492C103.935 82.9522 106.036 86.1541 114.034 89.6785Z" fill="#354E4C"/>
<path d="M92.6176 85.1602C92.7183 85.3354 92.7798 85.5277 92.7981 85.7254C92.7284 85.5319 92.6668 85.346 92.6176 85.1602Z" fill="#354E4C"/>
<path opacity="0.18" d="M152.119 72.0073C151.847 72.6405 151.509 73.2478 151.11 73.8207C150.088 75.2964 149.419 76.7077 149.312 78.0507C149.21 75.7744 148.525 69.8866 144.31 68.0125C139.025 65.6717 134.474 63.9418 134.474 63.9418C134.474 63.9418 149.202 64.4881 152.119 72.0073Z" fill="#354E4C"/>
<path opacity="0.18" d="M118.092 54.6547C112.06 48.6947 107.649 51.8928 106.807 46.9344C105.872 41.4221 94.5583 41.0352 94.5583 41.0352C94.5583 41.0352 89.4248 41.6953 89.0267 39.5973C88.8667 38.7627 89.3222 38.3758 90.1675 38.3037C90.1675 38.3037 88.5261 39.7149 92.1906 39.9653C95.855 40.2157 105.913 42.0253 107.784 44.4951C109.655 46.9648 111.449 49.5218 115.052 51.1682C116.681 51.9004 117.588 53.3269 118.092 54.6547Z" fill="#354E4C"/>
<path opacity="0.18" d="M88.1609 63.5396C86.833 63.2622 85.5287 62.8958 84.2584 62.4433C77.4834 60.038 76.7694 54.3854 76.4124 51.0051C76.0554 47.6249 74.972 46.9686 74.972 46.9686C75.9077 46.7144 77.188 48.1864 77.9471 52.3291C79.1125 58.7937 86.5072 62.7316 88.1609 63.5396Z" fill="#354E4C"/>
<path d="M129.065 150.424C121.195 148.591 109.972 142.791 109.972 142.791C110.166 142.346 110.4 141.917 110.673 141.509C110.821 141.383 114.124 138.648 117.809 140.822C121.581 143.049 121.404 145.109 124.88 145.109C128.356 145.109 129.398 148.986 129.065 150.424Z" fill="url(#paint18_linear_1_9088)"/>
<path opacity="0.18" d="M155.131 149.346L143.419 151.695C143.04 151.768 142.688 151.932 142.4 152.171C142.112 152.41 141.897 152.716 141.778 153.057C141.778 153.057 140.908 149.84 144.318 148.36C147.728 146.88 152.07 146.596 152.833 143.868C153.042 143.174 153.452 142.546 154.019 142.051C155.27 145.226 155.131 149.346 155.131 149.346Z" fill="#354E4C"/>
<path opacity="0.18" d="M119.549 168.505C122.984 175.922 123.472 180.129 121.515 183.164C122.779 180.25 122.176 176.942 118.285 171.824C113.308 165.272 116.443 156.126 124.03 154.517C128.774 153.512 129.562 152.158 129.488 151.281C129.734 152.158 129.734 153.58 128.089 155.075C125.389 157.503 116.115 161.088 119.549 168.505Z" fill="#354E4C"/>
<path opacity="0.18" d="M133.706 186.233C135.885 181.085 131.655 180.637 131.138 173.679C130.612 166.471 138.114 162.928 138.352 162.822C136.48 164.552 133.682 166.782 137.363 175.58C140.083 182.071 137.01 184.302 133.706 186.233Z" fill="#354E4C"/>
<path d="M178.562 157.613C178.436 157.368 178.285 157.134 178.111 156.915C176.059 154.259 172.871 156.733 170.856 154.089C168.841 151.444 169.375 149.84 167.368 149.84C165.361 149.84 164.495 149.043 164.122 148.235C163.749 147.427 157.917 148.736 157.917 148.736C157.917 148.736 156.456 144.1 159.239 142.521C161.479 141.251 162.567 141.459 162.932 140.048C163.33 139.995 163.732 139.973 164.134 139.983C168.451 140.078 166.711 143.159 169.251 145.204C171.792 147.248 171.041 151.941 175.961 153.057C179.428 153.842 179.067 156.262 178.562 157.613Z" fill="url(#paint19_linear_1_9088)"/>
<path opacity="0.18" d="M172.982 142.594C172.982 142.594 169.908 140.788 170.844 138.701C171.354 137.374 171.658 135.987 171.747 134.581C175.58 137.043 170.959 140.42 172.982 142.594Z" fill="#354E4C"/>
<path opacity="0.18" d="M177.127 170.853C177.094 172.124 178.153 172.795 179.392 173.38C179.392 173.38 174.853 172.211 175.391 168.258C175.928 164.305 184.041 163 185.395 156.915C185.798 155.359 185.911 153.752 185.728 152.161C186.606 153.17 187.287 154.703 187.505 157.01C188.091 163.19 177.213 167.663 177.127 170.853Z" fill="#354E4C"/>
<path opacity="0.18" d="M213.804 142.047C213.669 141.926 211.276 139.771 211.707 135.298C212.155 130.685 212.274 124.52 201.301 124.387C206.886 122.851 214.022 123.094 214.559 129.433C215.187 137.089 212.442 139.433 213.804 142.047Z" fill="#354E4C"/>
<path opacity="0.18" d="M214.962 162.818C207.875 167.268 212.557 172.211 206.939 174.685C202.13 176.802 200.168 178.262 199.45 180.474C199.45 180.189 199.746 176.043 204.046 172.583C208.498 168.998 205.47 164.218 210.55 160.511C215.63 156.805 217.502 151.118 215.474 148.235C217.389 148.879 219.012 150.102 220.079 151.706C220.592 155.769 219.098 160.219 214.962 162.818Z" fill="#354E4C"/>
<path d="M98.7731 118.985C98.7731 118.985 88.9861 117.665 84.2629 112.156C79.5397 106.648 79.5274 102.042 81.1811 100.631C82.8349 99.2197 83.6433 104.098 84.0824 105.904C84.5214 107.71 86.3639 115.358 98.7731 118.985Z" fill="#45695E"/>
<path d="M85.8588 108.594C85.8588 108.594 84.6277 106.295 84.8822 104.853C85.1366 103.412 85.588 105.832 85.8588 106.724C86.0136 107.339 86.0136 107.979 85.8588 108.594Z" fill="#45695E"/>
<path d="M160.888 201.112C160.499 201.16 160.104 201.133 159.727 201.032C159.35 200.931 159 200.758 158.699 200.525C158.398 200.292 158.153 200.004 157.98 199.678C157.806 199.353 157.708 198.997 157.692 198.635L156.789 186.074C156.732 185.313 156.987 184.56 157.504 183.966C158.02 183.371 158.76 182.978 159.575 182.864C159.964 182.815 160.36 182.842 160.737 182.943C161.114 183.043 161.464 183.216 161.765 183.449C162.065 183.683 162.31 183.971 162.483 184.297C162.655 184.623 162.752 184.979 162.768 185.341L163.675 197.902C163.731 198.663 163.476 199.416 162.96 200.01C162.443 200.605 161.704 200.998 160.888 201.112Z" fill="white"/>
<path d="M98.9286 259.395C98.9286 259.395 105.946 262.768 111.19 263.344C116.434 263.921 119.016 264.005 118.839 265.734C118.663 267.464 117.949 276.357 116.878 276.736C115.807 277.116 105.47 275.868 101.37 274.221C97.2707 272.575 95.933 271.418 96.0356 270.678C96.1382 269.938 97.9232 259.395 97.9232 259.395C97.9232 259.395 98.272 258.739 98.9286 259.395Z" stroke="white" stroke-miterlimit="10"/>
<path opacity="0.29" d="M93.1015 214.853C90.3932 214.762 87.336 213.354 84.6728 211.025C84.5784 210.797 82.7565 206.26 80.6965 203.798C78.6365 201.336 79.055 195.793 79.0797 195.615C80.9919 200.869 86.3512 211.454 98.5183 211.268C98.5183 211.268 100.521 215.099 93.1015 214.853Z" fill="#354E4C"/>
<path d="M90.5656 163.436C90.5656 163.436 99.5934 166.824 103.75 166.851C103.75 166.851 104.005 168.748 102.741 168.933C101.477 169.119 92.921 167.067 91.4971 166.187C90.0732 165.307 90.5656 163.436 90.5656 163.436Z" stroke="white" stroke-miterlimit="10"/>
<path d="M95.3543 179.283C96.1 179.283 96.7044 178.724 96.7044 178.035C96.7044 177.345 96.1 176.786 95.3543 176.786C94.6087 176.786 94.0043 177.345 94.0043 178.035C94.0043 178.724 94.6087 179.283 95.3543 179.283Z" stroke="white" stroke-miterlimit="10"/>
<path d="M93.0155 185.011C93.7611 185.011 94.3656 184.452 94.3656 183.763C94.3656 183.074 93.7611 182.515 93.0155 182.515C92.2699 182.515 91.6654 183.074 91.6654 183.763C91.6654 184.452 92.2699 185.011 93.0155 185.011Z" stroke="white" stroke-miterlimit="10"/>
<path d="M161.581 205.046C162.327 205.046 162.931 204.487 162.931 203.798C162.931 203.109 162.327 202.55 161.581 202.55C160.836 202.55 160.231 203.109 160.231 203.798C160.231 204.487 160.836 205.046 161.581 205.046Z" stroke="white" stroke-miterlimit="10"/>
<path d="M181.435 200.27C182.181 200.27 182.785 199.711 182.785 199.022C182.785 198.332 182.181 197.773 181.435 197.773C180.689 197.773 180.085 198.332 180.085 199.022C180.085 199.711 180.689 200.27 181.435 200.27Z" stroke="white" stroke-miterlimit="10"/>
<path opacity="0.25" d="M78.5546 100.365C78.5546 100.365 94.7965 107.74 102.269 118.594C109.742 129.448 110.226 120.927 108.338 118.594C106.451 116.261 103.287 108.048 95.49 102.782C87.6932 97.5163 79.8472 94.8911 78.5546 100.365Z" fill="white"/>
<path opacity="0.25" d="M107.932 126.049C107.932 126.049 108.125 124.118 109.983 124.126C111.842 124.133 112.507 125.833 111.797 126.622C111.087 127.411 107.472 128.211 107.932 126.049Z" fill="white"/>
<path d="M129.078 354.201C128.95 355.49 128.798 356.291 128.667 356.477C128.093 357.361 115.433 359.311 111.022 359.311C107.94 359.311 105.987 358.878 105.609 358.017C105.609 358.032 124.272 357.456 129.078 354.201Z" fill="#CEEBE9"/>
<path d="M170.343 351.116C170.247 351.383 170.093 351.63 169.892 351.841C167.635 353.935 154.069 354.284 152.181 353.757C151.668 353.616 151.869 353.081 152.448 352.345C152.448 352.345 162.432 353.522 170.343 351.116Z" fill="#CEEBE9"/>
<path d="M187.528 353.044H176.859C176.859 353.044 174.717 348.954 176.859 346.484C179.001 344.014 180.639 335.103 180.639 335.103L184.443 327.827C184.443 327.827 190.495 320.763 191.566 319.279C192.637 317.796 193.963 323.961 199.449 326.442C204.936 328.923 207.874 336.051 207.874 336.051L187.528 353.044Z" fill="url(#paint20_linear_1_9088)"/>
<path opacity="0.18" d="M105.749 63.2058C103.697 61.8666 101.691 60.7512 100.587 57.7618C98.3585 51.7487 94.0825 52.4885 90.1883 50.4285C89.2787 49.9674 88.4646 49.3611 87.7836 48.6378C91.0008 50.2084 96.4544 51.6349 97.7347 52.2419C99.4746 53.0651 101.243 57.0182 102.146 59.3286C102.651 60.6602 104.37 62.1701 105.749 63.2058Z" fill="#354E4C"/>
<path d="M49.4112 36.4903C49.3168 36.331 46.5387 31.5395 50.2606 26.7973L51.307 27.833C51.307 27.833 47.9175 30.9021 49.4112 36.4903Z" fill="url(#paint21_linear_1_9088)"/>
<path d="M71.6479 14.8242C65.55 13.6557 62.3575 16.9032 62.3575 16.9032L61.2372 16.0117C61.2372 16.0117 66.0794 12.6997 71.6438 14.8204L71.6479 14.8242Z" fill="url(#paint22_linear_1_9088)"/>
<path d="M94.2631 123.564C94.4149 123.564 94.538 123.45 94.538 123.31C94.538 123.17 94.4149 123.056 94.2631 123.056C94.1113 123.056 93.9882 123.17 93.9882 123.31C93.9882 123.45 94.1113 123.564 94.2631 123.564Z" fill="white"/>
<path d="M323.357 353.044H187.529C187.529 339.139 195.014 337.042 199.019 333.195C200.05 332.221 200.991 331.17 201.834 330.053C202.959 328.565 203.815 326.917 204.37 325.175C204.904 323.695 206.241 322.952 206.241 320.243C206.241 317.534 208.913 317.773 208.17 311.096C208.066 310.098 208.078 309.091 208.207 308.095C208.95 301.703 213.751 293.641 220.411 288.19C228.167 281.846 234.047 255.48 236.456 247.57C238.865 239.66 243.941 242.873 245.812 245.84C247.683 248.807 256.239 263.637 265.062 267.085C273.885 270.534 278.969 279.942 279.236 287.932C279.28 288.813 279.449 289.686 279.74 290.527C280.971 294.21 284.193 298.546 287.607 302.587C287.609 302.596 287.609 302.605 287.607 302.613C291.095 306.737 294.768 310.554 296.676 313.042C296.955 313.422 297.197 313.74 297.394 314.044C300.603 318.976 305.95 323.934 313.968 328.377C321.987 332.819 323.357 353.044 323.357 353.044Z" fill="url(#paint23_linear_1_9088)"/>
<path d="M50.121 359.326H98.7729C98.7729 359.326 100.853 355.498 97.5418 353.586C94.2302 351.674 93.5859 336.302 90.3031 334.101C87.0202 331.901 84.078 327.838 84.078 327.838C84.078 327.838 86.655 317.052 77.2127 328.43C67.7704 339.807 67.2698 345.741 64.3111 347.471C61.3524 349.2 55.7346 347.592 54.6677 351.116C53.6008 354.641 50.121 359.326 50.121 359.326Z" fill="url(#paint24_linear_1_9088)"/>
<path d="M241.043 242.596C241.043 242.596 236.217 257.013 236.755 265.404C237.292 273.796 234.879 285.997 233.546 288.926C232.212 291.854 222.819 295.705 220.16 300.948C217.501 306.191 221.243 291.687 226.057 286.828C230.87 281.968 235.171 246.735 241.043 242.596Z" fill="url(#paint25_linear_1_9088)"/>
<path opacity="0.56" d="M219.278 302.075C219.278 302.075 213.492 312.371 212.441 316.324C211.391 320.277 201.739 330.911 201.739 330.911C201.739 330.911 201.78 330.6 201.858 330.05C202.983 328.561 203.839 326.913 204.394 325.171C204.928 323.691 206.265 322.948 206.265 320.239C206.265 317.53 208.937 317.769 208.194 311.092C208.09 310.094 208.102 309.088 208.231 308.092C212.031 305.25 219.278 302.075 219.278 302.075Z" fill="#354E4C"/>
<path opacity="0.4" d="M221.691 353.044C221.691 353.044 225.971 324.238 229 320.774C232.028 317.31 236.308 299.465 237.732 296.115C239.156 292.765 241.142 288.812 241.044 287.078C240.945 285.344 241.044 282.048 241.044 282.048C241.044 282.048 236.308 293.205 234.17 294.567C232.032 295.929 218.482 306.293 217.411 309.742C216.34 313.19 211.174 331.567 202.794 336.063C194.415 340.558 188.149 346.814 188.149 346.814L187.529 353.051L221.691 353.044Z" fill="#354E4C"/>
<path opacity="0.4" d="M323.357 353.044H234.527C234.527 353.044 240.408 325.061 242.012 321.935C243.617 318.809 244.688 292.678 247.347 288.929C250.006 285.181 249.665 273.811 248.951 271.505C248.237 269.198 244.495 261.869 244.495 259.107C244.495 256.345 243.264 247.115 243.264 247.115C243.264 247.115 255.919 264.987 261.09 267.506C266.26 270.025 275.35 278.129 276.597 283.63C276.897 284.957 278.025 287.446 279.753 290.538C282.103 294.704 284.73 298.732 287.619 302.598C287.621 302.607 287.621 302.616 287.619 302.625C290.339 306.318 293.371 309.805 296.688 313.054C296.967 313.433 297.209 313.752 297.406 314.055C300.615 318.987 305.962 323.946 313.98 328.388C321.999 332.831 323.357 353.044 323.357 353.044Z" fill="#354E4C"/>
<path opacity="0.56" d="M180.639 222.998C180.504 223.435 180.329 223.86 180.114 224.269C180.019 225.028 173.548 278.14 171.603 284.517C169.658 290.895 172.313 316.005 171.603 323.737C171.513 324.701 171.447 325.827 171.394 327.064C171.394 327.231 171.394 327.402 171.373 327.572C171.032 336.298 171.299 349.891 169.461 351.587C168.07 352.873 162.152 353.484 157.696 353.582C157.068 353.582 156.465 353.605 155.915 353.605C158.558 352.308 167.064 347.88 166.609 344.724C166.391 343.206 166.736 337.22 166.871 329.966C167.064 319.42 166.818 306.187 163.749 300.075C158.57 289.768 153.949 263.428 160.285 249.934C162.53 245.142 163.864 239.345 164.651 233.856C164.918 231.982 165.123 230.149 165.279 228.4C165.382 227.228 165.464 226.09 165.525 225.012C165.599 223.772 165.653 222.607 165.686 221.537C165.686 221.298 165.686 221.063 165.706 220.832C165.706 220.073 165.735 219.405 165.739 218.783C165.739 216.359 165.694 214.883 165.694 214.883L179.17 210.099C179.293 212.44 179.244 211.617 179.281 212.451C179.281 212.831 179.309 213.058 179.309 213.058C179.984 213.729 180.429 214.568 180.59 215.471C180.59 215.471 181.131 217.694 180.631 219.549C180.13 221.405 181.14 221.405 180.639 222.998Z" fill="#354E4C"/>
<path opacity="0.56" d="M153.564 236.143L142.771 262.13C142.336 260.37 141.951 258.716 141.602 257.233L153.564 236.143Z" fill="#354E4C"/>
<path opacity="0.56" d="M124.005 291.285C123.472 296.065 125.79 316.005 127.752 329.849C127.781 330.05 127.809 330.251 127.834 330.448C127.887 330.827 127.933 331.184 127.982 331.552C129.623 344.621 128.802 355.259 128.285 356.048C127.875 356.701 120.411 357.972 115.289 358.469C117.341 358.165 124.699 356.109 124.461 342.288C124.353 338.965 124.061 335.648 123.587 332.352C121.35 315.444 115.95 292.139 120.747 281.862C126.591 269.365 140.469 245.506 140.35 242.604C140.231 239.702 148.631 236.758 148.631 236.758L153.555 236.151V236.185C152.693 237.653 124.535 286.57 124.005 291.285Z" fill="#354E4C"/>
<path opacity="0.56" d="M180.639 222.998C180.505 223.435 180.329 223.86 180.114 224.269C178.944 226.496 175.469 230.718 164.652 233.833C159.863 235.157 154.956 236.084 149.99 236.602C149.534 236.655 149.083 236.705 148.631 236.747C131.807 238.476 118.675 236.132 111.19 233.791C120.251 233.947 119.106 231.894 124.461 230.164C129.816 228.434 137.42 229.683 144.306 229.144C151.192 228.605 164.824 223.624 171.513 220.798C174.141 219.734 176.523 218.21 178.526 216.31C179.174 215.701 179.734 215.018 180.192 214.276C180.395 214.656 180.534 215.063 180.602 215.483C180.602 215.483 181.144 217.706 180.643 219.561C180.143 221.416 181.14 221.405 180.639 222.998Z" fill="#354E4C"/>
<defs>
<linearGradient id="paint0_linear_1_9088" x1="180.114" y1="307.204" x2="180.114" y2="386.603" gradientUnits="userSpaceOnUse">
<stop stop-color="white"/>
<stop offset="0.38" stop-color="#99D0B5"/>
<stop offset="0.99" stop-color="#5F9D84"/>
</linearGradient>
<linearGradient id="paint1_linear_1_9088" x1="68.0249" y1="81.4233" x2="136.228" y2="136.643" gradientUnits="userSpaceOnUse">
<stop offset="0.41" stop-color="#99D0B5"/>
<stop offset="1" stop-color="#45695E"/>
</linearGradient>
<linearGradient id="paint2_linear_1_9088" x1="37268.3" y1="16396.3" x2="51657.6" y2="16396.3" gradientUnits="userSpaceOnUse">
<stop stop-color="white"/>
<stop offset="0.38" stop-color="#99D0B5"/>
<stop offset="0.99" stop-color="#5F9D84"/>
</linearGradient>
<linearGradient id="paint3_linear_1_9088" x1="76.9333" y1="102.926" x2="117.671" y2="129.718" gradientUnits="userSpaceOnUse">
<stop stop-color="#45695E"/>
<stop offset="0.87" stop-color="#1B232A"/>
</linearGradient>
<linearGradient id="paint4_linear_1_9088" x1="2668.06" y1="2492.87" x2="2771.3" y2="2508.32" gradientUnits="userSpaceOnUse">
<stop stop-color="#45695E"/>
<stop offset="0.87" stop-color="#1B232A"/>
</linearGradient>
<linearGradient id="paint5_linear_1_9088" x1="22796.5" y1="29729.9" x2="31046.6" y2="29729.9" gradientUnits="userSpaceOnUse">
<stop stop-color="white"/>
<stop offset="0.38" stop-color="#99D0B5"/>
<stop offset="0.99" stop-color="#5F9D84"/>
</linearGradient>
<linearGradient id="paint6_linear_1_9088" x1="21247.3" y1="6986.42" x2="26767.7" y2="6986.42" gradientUnits="userSpaceOnUse">
<stop stop-color="white"/>
<stop offset="0.38" stop-color="#99D0B5"/>
<stop offset="0.99" stop-color="#5F9D84"/>
</linearGradient>
<linearGradient id="paint7_linear_1_9088" x1="48283.4" y1="39131.1" x2="67559.6" y2="54314.8" gradientUnits="userSpaceOnUse">
<stop stop-color="white"/>
<stop offset="0.38" stop-color="#99D0B5"/>
<stop offset="0.99" stop-color="#5F9D84"/>
</linearGradient>
<linearGradient id="paint8_linear_1_9088" x1="33702.2" y1="41180.1" x2="48822" y2="46641.7" gradientUnits="userSpaceOnUse">
<stop stop-color="white"/>
<stop offset="0.38" stop-color="#99D0B5"/>
<stop offset="0.99" stop-color="#5F9D84"/>
</linearGradient>
<linearGradient id="paint9_linear_1_9088" x1="146.953" y1="139.191" x2="150.065" y2="211.26" gradientUnits="userSpaceOnUse">
<stop stop-color="#F8BA67"/>
<stop offset="0.38" stop-color="#99D0B5"/>
<stop offset="0.99" stop-color="#518273"/>
</linearGradient>
<linearGradient id="paint10_linear_1_9088" x1="126.89" y1="142.521" x2="126.89" y2="220.786" gradientUnits="userSpaceOnUse">
<stop stop-color="#F8BA67"/>
<stop offset="0.38" stop-color="#99D0B5"/>
<stop offset="0.99" stop-color="#6FC29F"/>
</linearGradient>
<linearGradient id="paint11_linear_1_9088" x1="12545.2" y1="5316.33" x2="15419" y2="8637.46" gradientUnits="userSpaceOnUse">
<stop stop-color="white"/>
<stop offset="0.38" stop-color="#99D0B5"/>
<stop offset="0.99" stop-color="#5F9D84"/>
</linearGradient>
<linearGradient id="paint12_linear_1_9088" x1="59.9735" y1="25.0597" x2="77.0372" y2="41.0344" gradientUnits="userSpaceOnUse">
<stop stop-color="#EE7671"/>
<stop offset="1" stop-color="#1B232A" stop-opacity="0"/>
</linearGradient>
<linearGradient id="paint13_linear_1_9088" x1="105.232" y1="59.192" x2="111.305" y2="94.0821" gradientUnits="userSpaceOnUse">
<stop stop-color="white"/>
<stop offset="1" stop-color="#B4E4F4"/>
</linearGradient>
<linearGradient id="paint14_linear_1_9088" x1="33235" y1="33126.6" x2="39419.7" y2="32508.4" gradientUnits="userSpaceOnUse">
<stop stop-color="white"/>
<stop offset="0.38" stop-color="#99D0B5"/>
<stop offset="0.99" stop-color="#5F9D84"/>
</linearGradient>
<linearGradient id="paint15_linear_1_9088" x1="20796.8" y1="20455.2" x2="23244.3" y2="20211.1" gradientUnits="userSpaceOnUse">
<stop stop-color="white"/>
<stop offset="0.38" stop-color="#99D0B5"/>
<stop offset="0.99" stop-color="#5F9D84"/>
</linearGradient>
<linearGradient id="paint16_linear_1_9088" x1="22957.5" y1="43778.6" x2="28004.5" y2="44907.7" gradientUnits="userSpaceOnUse">
<stop stop-color="white"/>
<stop offset="0.38" stop-color="#99D0B5"/>
<stop offset="0.99" stop-color="#5F9D84"/>
</linearGradient>
<linearGradient id="paint17_linear_1_9088" x1="18348.5" y1="25715.5" x2="21909.1" y2="25933.1" gradientUnits="userSpaceOnUse">
<stop stop-color="white"/>
<stop offset="0.38" stop-color="#99D0B5"/>
<stop offset="0.99" stop-color="#5F9D84"/>
</linearGradient>
<linearGradient id="paint18_linear_1_9088" x1="9916.97" y1="5558.27" x2="10592.8" y2="6018.32" gradientUnits="userSpaceOnUse">
<stop stop-color="white"/>
<stop offset="0.38" stop-color="#99D0B5"/>
<stop offset="0.99" stop-color="#5F9D84"/>
</linearGradient>
<linearGradient id="paint19_linear_1_9088" x1="13176.8" y1="9499.06" x2="14979.1" y2="9705.52" gradientUnits="userSpaceOnUse">
<stop stop-color="white"/>
<stop offset="0.38" stop-color="#99D0B5"/>
<stop offset="0.99" stop-color="#5F9D84"/>
</linearGradient>
<linearGradient id="paint20_linear_1_9088" x1="22545.6" y1="32590.4" x2="22470.1" y2="36261.4" gradientUnits="userSpaceOnUse">
<stop stop-color="white"/>
<stop offset="0.38" stop-color="#99D0B5"/>
<stop offset="0.99" stop-color="#5F9D84"/>
</linearGradient>
<linearGradient id="paint21_linear_1_9088" x1="951.831" y1="1731.7" x2="1423.11" y2="1879.94" gradientUnits="userSpaceOnUse">
<stop stop-color="#45695E"/>
<stop offset="0.87" stop-color="#1B232A"/>
</linearGradient>
<linearGradient id="paint22_linear_1_9088" x1="3655.24" y1="390.314" x2="3771.55" y2="834.062" gradientUnits="userSpaceOnUse">
<stop stop-color="#45695E"/>
<stop offset="0.87" stop-color="#1B232A"/>
</linearGradient>
<linearGradient id="paint23_linear_1_9088" x1="116020" y1="86565.8" x2="116020" y2="118717" gradientUnits="userSpaceOnUse">
<stop stop-color="white"/>
<stop offset="0.38" stop-color="#99D0B5"/>
<stop offset="0.99" stop-color="#5F9D84"/>
</linearGradient>
<linearGradient id="paint24_linear_1_9088" x1="20720.3" y1="34628.6" x2="20527" y2="39910.2" gradientUnits="userSpaceOnUse">
<stop stop-color="white"/>
<stop offset="0.38" stop-color="#99D0B5"/>
<stop offset="0.99" stop-color="#5F9D84"/>
</linearGradient>
<linearGradient id="paint25_linear_1_9088" x1="17807.7" y1="45996.6" x2="12401.4" y2="57815.3" gradientUnits="userSpaceOnUse">
<stop stop-color="white"/>
<stop offset="0.38" stop-color="#99D0B5"/>
<stop offset="0.99" stop-color="#5F9D84"/>
</linearGradient>
</defs>
</svg>
