<svg width="74" height="92" viewBox="0 0 74 92" fill="none" xmlns="http://www.w3.org/2000/svg">
<path opacity="0.4" d="M71.78 60.9118C69.1441 65.7517 50.5178 73.8268 34.0546 80.1931C33.5855 82.1589 33.1201 84.173 32.6659 86.1983C25.1863 89.1581 18.6635 91.3621 15.0112 91.7605C2.35294 93.1454 0.0930758 88.0822 0 87.8588C0 87.8588 18.9874 80.074 35.8453 73.0822C40.6853 71.0867 45.3167 69.1545 49.3041 67.4978C67.2379 59.9699 69.6765 49.7689 58.675 30.1711C53.1798 20.3573 47.0517 14.0282 42.2936 10.1377C37.5356 6.24717 34.1737 4.80265 34.1737 4.80265C34.5613 3.07354 35.2931 1.44019 36.3256 0L36.6979 0.107958C37.3606 0.309 38.0233 0.536113 38.6451 0.78183C49.9929 0.323902 56.8879 13.8532 63.0383 25.495C69.1888 37.1368 76.6311 52.0027 71.78 60.9118Z" fill="#364E4C"/>
</svg>
