<svg width="32" height="29" viewBox="0 0 32 29" fill="none" xmlns="http://www.w3.org/2000/svg">
<path d="M1.58139 15.1014L19.8454 0.86703C20.6835 0.21301 21.7431 -0.0896096 22.8002 0.0231033C23.8573 0.135816 24.8293 0.655029 25.5106 1.47106L31.0446 8.09676C31.4002 8.52128 31.666 9.01353 31.8258 9.54374C31.9856 10.0739 32.0362 10.6311 31.9745 11.1814C31.9127 11.7317 31.74 12.2638 31.4667 12.7454C31.1933 13.227 30.8251 13.6482 30.3843 13.9833L12.3417 27.7262C11.5353 28.3408 10.5297 28.6345 9.51932 28.5507C8.50892 28.4668 7.5655 28.0113 6.87148 27.2722L1.11241 21.1418C0.721715 20.7263 0.422068 20.2339 0.232632 19.696C0.0431955 19.1581 -0.0318519 18.5865 0.0122931 18.0179C0.056438 17.4494 0.218798 16.8963 0.488991 16.394C0.759184 15.8918 1.13125 15.4515 1.58139 15.1014Z" fill="#CDEAE8"/>
</svg>
