<svg width="21" height="20" viewBox="0 0 21 20" fill="none" xmlns="http://www.w3.org/2000/svg">
<path d="M18.9999 6.01001L12.4499 0.770018C11.1699 -0.249981 9.16988 -0.259981 7.89988 0.760018L1.34988 6.01001C0.409885 6.76001 -0.160115 8.26001 0.0398848 9.44001L1.29988 16.98C1.58988 18.67 3.15988 20 4.86988 20H15.4699C17.1599 20 18.7599 18.64 19.0499 16.97L20.3099 9.43001C20.4899 8.26001 19.9199 6.76001 18.9999 6.01001ZM10.9199 16C10.9199 16.41 10.5799 16.75 10.1699 16.75C9.75988 16.75 9.41988 16.41 9.41988 16V13C9.41988 12.59 9.75988 12.25 10.1699 12.25C10.5799 12.25 10.9199 12.59 10.9199 13V16Z" fill="#777777"/>
</svg>
