<svg width="9" height="6" viewBox="0 0 9 6" fill="none" xmlns="http://www.w3.org/2000/svg">
<path d="M0.899661 5.6718L8.70512 1.11774C8.79495 1.06415 8.86935 0.988177 8.92104 0.897233C8.97273 0.80629 8.99993 0.70349 9.00001 0.598885C9.00029 0.493907 8.97291 0.390702 8.92061 0.299682C8.8683 0.208661 8.79293 0.133038 8.70209 0.0804256C8.61125 0.0278128 8.50815 7.13617e-05 8.40317 1.37516e-07C8.29819 -7.10867e-05 8.19505 0.027526 8.10413 0.0800155L0.30241 4.55943C0.210935 4.6118 0.134844 4.6873 0.0817729 4.77838C0.0287017 4.86945 0.000518287 4.97287 4.78863e-05 5.07827V5.1492C-0.00129225 5.25504 0.0255177 5.35935 0.0777402 5.45142C0.129963 5.54349 0.205708 5.62005 0.297238 5.67322C0.388768 5.72639 0.49279 5.75428 0.598643 5.75403C0.704496 5.75378 0.80838 5.7254 0.899661 5.6718Z" fill="#FCBD68"/>
</svg>
