<svg width="27" height="25" viewBox="0 0 27 25" fill="none" xmlns="http://www.w3.org/2000/svg">
<path d="M7.40185 12.3845C7.34425 13.3852 8.11461 14.242 9.11536 14.2996C9.15136 14.2996 9.18736 14.2996 9.22336 14.2996C10.2313 14.2996 11.0449 13.486 11.0377 12.4781C11.0377 11.4701 10.2241 10.6566 9.21616 10.6638C8.25141 10.6638 7.45224 11.4197 7.40185 12.3845Z" fill="#0033AD"/>
<path d="M0.619774 11.9165C0.29579 11.8949 0.0150032 12.1469 0.000603886 12.4709C-0.0137954 12.7948 0.230993 13.0756 0.554977 13.09C0.878962 13.1116 1.15255 12.8596 1.17415 12.5357C1.19575 12.2117 0.943759 11.9381 0.619774 11.9165Z" fill="#0033AD"/>
<path d="M7.28674 1.82978C7.57473 1.68579 7.68992 1.3258 7.54593 1.03782C7.40194 0.749832 7.04196 0.634637 6.75397 0.77863C6.46598 0.922623 6.35079 1.27541 6.49478 1.56339C6.63878 1.85858 6.99156 1.98097 7.28674 1.82978C7.28674 1.82978 7.27954 1.82978 7.28674 1.82978Z" fill="#0033AD"/>
<path d="M9.12972 5.04804C9.5761 4.82485 9.75609 4.27768 9.5329 3.8313C9.30971 3.38492 8.76254 3.20493 8.31616 3.42812C7.86978 3.65131 7.68979 4.19848 7.91298 4.64486C8.13617 5.09124 8.68334 5.27123 9.12972 5.04804Z" fill="#0033AD"/>
<path d="M2.92362 7.25832C3.26921 7.48151 3.72999 7.38791 3.96037 7.04233C4.18356 6.69674 4.08997 6.23597 3.74438 6.00558C3.3988 5.78239 2.93802 5.87598 2.70763 6.22157C2.47725 6.56715 2.57804 7.03513 2.92362 7.25832Z" fill="#0033AD"/>
<path d="M4.02525 11.5925C3.52127 11.5637 3.09649 11.9453 3.06769 12.4493C3.03889 12.9532 3.42048 13.378 3.92445 13.4068C4.42843 13.4356 4.85321 13.054 4.88201 12.5501C4.91081 12.0533 4.52922 11.6213 4.02525 11.5925Z" fill="#0033AD"/>
<path d="M3.02447 17.6906C2.65729 17.8778 2.5061 18.3242 2.69329 18.6986C2.88048 19.0658 3.32686 19.2169 3.70124 19.0298C4.06842 18.8426 4.21961 18.3962 4.03242 18.0218C3.84523 17.6546 3.39165 17.5034 3.02447 17.6906Z" fill="#0033AD"/>
<path d="M6.55229 9.71341C7.04906 10.0374 7.71143 9.9006 8.02821 9.40383C8.3522 8.90705 8.21541 8.24468 7.71863 7.9279C7.22185 7.60391 6.55948 7.74071 6.2427 8.23748C5.91872 8.72706 6.05551 9.38943 6.55229 9.71341Z" fill="#0033AD"/>
<path d="M17.7479 4.97603C18.1655 5.24962 18.7343 5.13442 19.0078 4.71684C19.2814 4.29926 19.1662 3.73049 18.7487 3.4569C18.3311 3.18331 17.7623 3.29851 17.4887 3.71609C17.2079 4.14087 17.3231 4.70244 17.7479 4.97603Z" fill="#0033AD"/>
<path d="M19.6053 1.77218C19.8789 1.95218 20.2389 1.87298 20.4189 1.59939C20.5989 1.32581 20.5197 0.965823 20.2461 0.785832C19.9725 0.60584 19.6125 0.685036 19.4326 0.951424C19.2598 1.22501 19.339 1.59219 19.6053 1.77218Z" fill="#0033AD"/>
<path d="M17.8845 10.6494C16.8837 10.5918 16.0198 11.3621 15.9694 12.3629C15.9118 13.3636 16.6822 14.2276 17.6829 14.278C17.7189 14.278 17.7549 14.278 17.7837 14.278C18.7845 14.278 19.598 13.4644 19.598 12.4565C19.6052 11.4989 18.8492 10.6998 17.8845 10.6494Z" fill="#0033AD"/>
<path d="M9.72726 9.58384C10.0368 10.1958 10.6632 10.5846 11.3544 10.5846C12.3551 10.5846 13.1687 9.77103 13.1687 8.76307C13.1687 8.48229 13.1039 8.2015 12.9743 7.94231C12.5207 7.04236 11.4264 6.68237 10.5336 7.13595C9.63367 7.59673 9.27368 8.69108 9.72726 9.58384Z" fill="#0033AD"/>
<path d="M23.9754 7.25833C24.3425 7.07114 24.4865 6.61756 24.2993 6.25037C24.1122 5.88319 23.6586 5.7392 23.2914 5.92639C22.9242 6.11358 22.7802 6.55996 22.9602 6.92714C23.1546 7.29432 23.601 7.44552 23.9754 7.25833Z" fill="#0033AD"/>
<path d="M19.3677 7.8343C18.8422 8.10069 18.6262 8.74146 18.8926 9.26704C19.1589 9.79261 19.7997 10.0086 20.3253 9.74221C20.8509 9.47583 21.0668 8.83506 20.8005 8.30948C20.5341 7.78391 19.8933 7.57512 19.3677 7.8343Z" fill="#0033AD"/>
<path d="M13.428 1.49859C13.8383 1.52019 14.1911 1.20341 14.2199 0.793027C14.2487 0.382646 13.9247 0.0298632 13.5144 0.0010646C13.104 -0.0205344 12.7512 0.289051 12.7224 0.699431C12.7008 1.11701 13.0176 1.46979 13.428 1.49859Z" fill="#0033AD"/>
<path d="M13.4208 6.19996C14.0111 6.23596 14.5151 5.78238 14.5439 5.19201C14.5799 4.60164 14.1263 4.09766 13.536 4.06886C12.9456 4.03286 12.4416 4.48644 12.4128 5.07681C12.384 5.66719 12.8304 6.17116 13.4208 6.19996Z" fill="#0033AD"/>
<path d="M7.63224 17.1146C8.15782 16.8483 8.37381 16.2075 8.10742 15.6819C7.84103 15.1563 7.20026 14.9404 6.67469 15.2067C6.14911 15.4731 5.93312 16.1139 6.19951 16.6395C6.4659 17.165 7.10667 17.381 7.63224 17.1146Z" fill="#0033AD"/>
<path d="M14.112 7.7623C13.5648 8.60466 13.7952 9.72781 14.6376 10.275C15.4799 10.8222 16.6031 10.5918 17.1502 9.74941C17.6974 8.90705 17.467 7.7839 16.6247 7.23673C16.3295 7.04234 15.9839 6.94154 15.6311 6.94154C15.0191 6.94154 14.4504 7.25113 14.112 7.7623Z" fill="#0033AD"/>
<path d="M17.2726 15.3651C16.819 14.4652 15.7247 14.1052 14.8319 14.5588C13.932 15.0124 13.572 16.1067 14.0256 16.9995C14.4791 17.8994 15.5735 18.2594 16.4662 17.8058C17.359 17.3594 17.7262 16.2795 17.2798 15.3795C17.2798 15.3723 17.2798 15.3723 17.2726 15.3651Z" fill="#0033AD"/>
<path d="M20.4478 15.2356C19.951 14.9116 19.2886 15.0484 18.9718 15.5451C18.6478 16.0419 18.7846 16.7043 19.2814 17.0211C19.7782 17.3451 20.4406 17.2083 20.7573 16.7115C21.0813 16.2219 20.9445 15.5595 20.4478 15.2356Z" fill="#0033AD"/>
<path d="M23.9322 12.5069C23.961 12.0029 23.5794 11.5781 23.0754 11.5493C22.5715 11.5205 22.1467 11.9021 22.1179 12.4061C22.0891 12.9101 22.4707 13.3348 22.9746 13.3636C23.4714 13.3924 23.9034 13.0037 23.9322 12.5069Z" fill="#0033AD"/>
<path d="M26.445 11.8589C26.121 11.8373 25.8402 12.0893 25.8258 12.4133C25.8114 12.7373 26.0562 13.0181 26.3802 13.0325C26.7042 13.0541 26.9778 12.8021 26.9994 12.4781C27.0138 12.1541 26.769 11.8805 26.445 11.8589Z" fill="#0033AD"/>
<path d="M24.0763 17.6906C23.7307 17.4674 23.2699 17.561 23.0396 17.9066C22.8164 18.2522 22.91 18.713 23.2555 18.9434C23.6011 19.1666 24.0619 19.073 24.2923 18.7274C24.5227 18.3818 24.4219 17.9138 24.0763 17.6906Z" fill="#0033AD"/>
<path d="M7.38735 23.1768C7.11377 22.9968 6.75378 23.076 6.57379 23.3424C6.3938 23.6159 6.473 23.9759 6.73938 24.1559C7.01297 24.3359 7.37295 24.2567 7.55295 23.9903C7.74014 23.7239 7.66094 23.3567 7.38735 23.1768Z" fill="#0033AD"/>
<path d="M19.7134 23.1192C19.4254 23.2632 19.3102 23.6231 19.4542 23.9111C19.5982 24.1991 19.9581 24.3143 20.2461 24.1703C20.5341 24.0263 20.6493 23.6735 20.5053 23.3855C20.3613 23.0904 20.0085 22.968 19.7134 23.1192C19.7206 23.1192 19.7134 23.1192 19.7134 23.1192Z" fill="#0033AD"/>
<path d="M12.888 17.1866C13.4352 16.3443 13.2048 15.2211 12.3625 14.6668C11.5201 14.1196 10.3969 14.35 9.84257 15.1923C9.2882 16.0347 9.52579 17.1578 10.3681 17.7122C10.6633 17.9066 11.0089 18.0074 11.3617 18.0074C11.9809 18.0146 12.5496 17.705 12.888 17.1866Z" fill="#0033AD"/>
<path d="M9.2521 19.9729C8.83452 19.6993 8.26574 19.8145 7.99216 20.2321C7.71857 20.6497 7.83376 21.2185 8.25134 21.492C8.66892 21.7656 9.2377 21.6504 9.51128 21.2329C9.79207 20.8153 9.67688 20.2465 9.2521 19.9729Z" fill="#0033AD"/>
<path d="M13.4928 23.4504C13.0825 23.4288 12.7297 23.7455 12.7009 24.1559C12.6721 24.5663 12.9961 24.9191 13.4064 24.9479C13.8168 24.9695 14.1696 24.6599 14.1984 24.2495C14.22 23.8319 13.9032 23.4791 13.4928 23.4504Z" fill="#0033AD"/>
<path d="M13.4999 18.749C12.9096 18.713 12.4056 19.1666 12.3768 19.7569C12.3408 20.3473 12.7944 20.8513 13.3847 20.8801C13.9751 20.9089 14.4791 20.4625 14.5079 19.8721C14.5439 19.289 14.0903 18.7778 13.4999 18.749Z" fill="#0033AD"/>
<path d="M17.8702 19.9009C17.4238 20.1313 17.2438 20.6785 17.4742 21.1249C17.7046 21.5713 18.2518 21.7512 18.6981 21.5209C19.1445 21.2977 19.3245 20.7505 19.1013 20.3041C18.8709 19.8577 18.3238 19.6705 17.8702 19.9009Z" fill="#0033AD"/>
</svg>
