<svg width="26" height="24" viewBox="0 0 26 24" fill="none" xmlns="http://www.w3.org/2000/svg">
<path d="M1.5119 12.2884L16.0602 0.940892C16.7283 0.420675 17.5723 0.180111 18.4143 0.269876C19.2563 0.35964 20.0305 0.772715 20.5739 1.42209L24.9869 6.7042C25.2704 7.04297 25.4822 7.43567 25.6096 7.85861C25.7371 8.28154 25.7774 8.72592 25.7282 9.16489C25.6791 9.60386 25.5414 10.0283 25.3236 10.4126C25.1058 10.7968 24.8123 11.133 24.4609 11.4006L10.0767 22.3528C9.43247 22.841 8.63011 23.073 7.8247 23.0041C7.01929 22.9352 6.26798 22.5703 5.71598 21.9798L1.12393 17.0931C0.815806 16.7607 0.580099 16.368 0.431734 15.9398C0.283368 15.5116 0.22559 15.0572 0.262065 14.6055C0.29854 14.1538 0.428465 13.7146 0.643614 13.3157C0.858763 12.9168 1.15445 12.567 1.5119 12.2884V12.2884Z" stroke="white" stroke-width="0.5" stroke-miterlimit="10"/>
</svg>
