<svg width="44" height="44" viewBox="0 0 44 44" fill="none" xmlns="http://www.w3.org/2000/svg">
<path fill-rule="evenodd" clip-rule="evenodd" d="M32 22C32 27.5228 27.5228 32 22 32C16.4772 32 12 27.5228 12 22C12 16.4772 16.4772 12 22 12C27.5228 12 32 16.4772 32 22ZM22.75 21.25H26C26.41 21.25 26.75 21.59 26.75 22C26.75 22.41 26.41 22.75 26 22.75H22.75V26C22.75 26.41 22.41 26.75 22 26.75C21.59 26.75 21.25 26.41 21.25 26V22.75H18C17.59 22.75 17.25 22.41 17.25 22C17.25 21.59 17.59 21.25 18 21.25H21.25V18C21.25 17.59 21.59 17.25 22 17.25C22.41 17.25 22.75 17.59 22.75 18V21.25Z" fill="#777777"/>
</svg>
