<svg width="61" height="14" viewBox="0 0 61 14" fill="none" xmlns="http://www.w3.org/2000/svg">
<path d="M0.0187439 9.96658C0.0187439 10.0566 0 10.1503 0 10.244C0 10.3378 -4.57754e-06 10.4915 0.0187439 10.619V13.36L0.416211 11.3014C2.81226 6.4269 15.3662 2.73724 30.5075 2.73724C45.9675 2.73724 58.7465 6.60314 60.745 11.6164C60.7434 11.6015 60.7434 11.5864 60.745 11.5714C60.8683 11.837 60.9541 12.1184 61 12.4076V9.74909L60.9625 9.76783C60.2126 4.32709 46.8599 0 30.4925 0C14.0126 0 0.592463 4.38709 0.0112601 9.87658L0.0187439 9.96658Z" fill="#364E4C"/>
</svg>
