<svg width="44" height="44" viewBox="0 0 44 44" fill="none" xmlns="http://www.w3.org/2000/svg">
<path d="M22.02 30.35C19.44 30.35 16.87 29.94 14.42 29.12C13.51 28.82 12.82 28.17 12.52 27.35C12.22 26.53 12.32 25.59 12.81 24.77L14.08 22.65C14.36 22.18 14.61 21.3 14.61 20.75V18.65C14.61 14.56 17.93 11.24 22.02 11.24C26.11 11.24 29.43 14.56 29.43 18.65V20.75C29.43 21.29 29.68 22.18 29.96 22.65L31.23 24.77C31.7 25.55 31.78 26.48 31.47 27.33C31.16 28.18 30.48 28.83 29.62 29.12C27.17 29.95 24.6 30.35 22.02 30.35ZM22.02 12.75C18.76 12.75 16.11 15.4 16.11 18.66V20.76C16.11 21.57 15.79 22.74 15.37 23.43L14.1 25.56C13.84 25.99 13.78 26.45 13.93 26.85C14.08 27.25 14.42 27.55 14.9 27.71C19.5 29.24 24.56 29.24 29.16 27.71C29.59 27.57 29.92 27.25 30.07 26.83C30.23 26.41 30.18 25.95 29.95 25.56L28.68 23.44C28.26 22.75 27.94 21.58 27.94 20.77V18.67C27.93 15.4 25.28 12.75 22.02 12.75Z" fill="#5ED5A8"/>
<path opacity="0.1" d="M26 19C26 17.9391 25.5786 16.9217 24.8284 16.1716C24.0783 15.4214 23.0609 15 22 15C20.9391 15 19.9217 15.4214 19.1716 16.1716C18.4214 16.9217 18 17.9391 18 19L22 19H26Z" fill="#5ED5A8"/>
<path d="M21.75 29.75C20.76 29.75 19.8 29.35 19.1 28.65C18.4 27.95 18 26.99 18 26H19.5C19.5 26.59 19.74 27.17 20.16 27.59C20.58 28.01 21.16 28.25 21.75 28.25C22.99 28.25 24 27.24 24 26H25.5C25.5 28.07 23.82 29.75 21.75 29.75Z" fill="#5ED5A8"/>
</svg>
