<svg width="19" height="20" viewBox="0 0 19 20" fill="none" xmlns="http://www.w3.org/2000/svg">
<path d="M12.35 1.9V5.7H10.85V1.9C10.85 1.63 10.61 1.5 10.45 1.5C10.4 1.5 10.35 1.51 10.3 1.53L2.37 4.52C1.84 4.72 1.5 5.22 1.5 5.79V6.46C0.59 7.14 0 8.23 0 9.46V5.79C0 4.6 0.73 3.54 1.84 3.12L9.78 0.12C10 0.0400001 10.23 0 10.45 0C11.45 0 12.35 0.81 12.35 1.9Z" fill="#777777"/>
<path d="M19.0001 12.45V13.45C19.0001 13.72 18.7901 13.94 18.5101 13.95H17.0501C16.5201 13.95 16.0401 13.56 16.0001 13.04C15.9701 12.73 16.0901 12.44 16.2901 12.24C16.4701 12.05 16.7201 11.95 16.9901 11.95H18.5001C18.7901 11.96 19.0001 12.18 19.0001 12.45Z" fill="#777777"/>
<path d="M16.98 10.9H18C18.55 10.9 19 10.45 19 9.9V9.46C19 7.39 17.31 5.7 15.24 5.7H3.76C2.91 5.7 2.13 5.98 1.5 6.46C0.59 7.14 0 8.23 0 9.46V16.19C0 18.26 1.69 19.95 3.76 19.95H15.24C17.31 19.95 19 18.26 19 16.19V16C19 15.45 18.55 15 18 15H17.13C16.17 15 15.25 14.41 15 13.48C14.79 12.72 15.04 11.99 15.54 11.5C15.91 11.12 16.42 10.9 16.98 10.9ZM11.5 10.7H4.5C4.09 10.7 3.75 10.36 3.75 9.95C3.75 9.54 4.09 9.2 4.5 9.2H11.5C11.91 9.2 12.25 9.54 12.25 9.95C12.25 10.36 11.91 10.7 11.5 10.7Z" fill="#777777"/>
</svg>
