<svg width="79" height="89" viewBox="0 0 79 89" fill="none" xmlns="http://www.w3.org/2000/svg">
<path d="M76.7161 60.1294C74.0817 64.9666 55.4659 73.0371 39.012 79.3998C36.0762 80.5384 33.2074 81.6323 30.5135 82.6184C26.4465 84.1067 22.7739 85.4425 19.8456 86.4806C15.5628 87.9913 12.8726 88.8992 12.8726 88.8992C10.1015 89.2705 7.29065 88.6082 4.97682 87.0388C4.12877 86.4613 3.35951 85.7759 2.68844 84.9997C-1.67619 79.9877 0.586118 72.5534 0.586118 72.5534C3.66704 69.9116 7.81959 67.2103 12.3219 64.6429C14.8261 63.214 17.4381 61.8262 20.0353 60.5164C31.6334 54.6486 42.9339 50.2505 42.9339 50.2505C42.9339 50.2505 41.9664 49.1343 35.1758 29.2388C30.9376 16.8259 35.2799 8.52095 39.1385 4.02986C40.4305 2.48699 41.9337 1.13413 43.6036 0.0113082C54.945 -0.446359 61.8361 13.0753 67.9831 24.7105C74.13 36.3456 81.5644 51.2254 76.7161 60.1294Z" fill="#70C3A0"/>
</svg>
