<svg width="15" height="12" viewBox="0 0 15 12" fill="none" xmlns="http://www.w3.org/2000/svg">
<path opacity="0.65" d="M14.9076 8.88422C14.9076 8.88422 7.36978 11.5872 4.75676 11.9509C2.14374 12.3147 0.950693 10.5819 2.37846 9.18932C3.80623 7.79677 3.196 5.58667 3.196 5.58667C3.196 5.58667 1.38097 7.34302 0.676859 6.99488C-0.0272468 6.64675 0.000142712 5.45761 0.000142712 5.45761L5.01103 1.48727C5.01103 1.48727 1.69781 3.7091 1.18929 2.91503C0.68077 2.12096 1.72519 1.04133 1.72519 1.04133C1.72519 1.04133 9.22392 -1.61075 10.4287 1.54987C11.6335 4.71048 14.9076 8.88422 14.9076 8.88422Z" fill="#364E4C"/>
</svg>
