<svg width="321" height="215" viewBox="0 0 321 215" fill="none" xmlns="http://www.w3.org/2000/svg">
<path opacity="0.46" d="M305.106 136.007H235.966C231.171 136.007 227.284 139.893 227.284 144.688V173.541C227.284 178.335 231.171 182.222 235.966 182.222H305.106C309.901 182.222 313.788 178.335 313.788 173.541V144.688C313.788 139.893 309.901 136.007 305.106 136.007Z" fill="#CEEAE8"/>
<path opacity="0.46" d="M312.318 139.902H243.178C238.384 139.902 234.497 143.789 234.497 148.584V177.436C234.497 182.231 238.384 186.118 243.178 186.118H312.318C317.113 186.118 321 182.231 321 177.436V148.584C321 143.789 317.113 139.902 312.318 139.902Z" fill="#CEEAE8"/>
<path d="M303.155 144.503H237.917C236.561 144.503 235.461 145.602 235.461 146.959V146.962C235.461 148.319 236.561 149.418 237.917 149.418H303.155C304.511 149.418 305.611 148.319 305.611 146.962V146.959C305.611 145.602 304.511 144.503 303.155 144.503Z" fill="#EE7671"/>
<path d="M255.944 157.154H240.915V172.183H255.944V157.154Z" fill="#70C3A0"/>
<path d="M277.744 157.154H262.715V172.183H277.744V157.154Z" fill="white"/>
<path d="M300.157 157.154H285.127V172.183H300.157V157.154Z" fill="#70C3A0"/>
<path d="M19.5816 118.251C21.0894 119.894 22.0761 121.947 22.4171 124.15C22.758 126.354 22.4378 128.609 21.497 130.631C20.5562 132.653 19.0371 134.35 17.1316 135.508C15.2261 136.667 13.02 137.234 10.7921 137.138C8.56426 137.043 6.41472 136.289 4.61534 134.972C2.81596 133.655 1.44755 131.834 0.683145 129.739C-0.0812605 127.644 -0.20733 125.37 0.320882 123.203C0.849094 121.037 2.00786 119.076 3.65066 117.568C4.73472 116.553 6.01022 115.765 7.40254 115.25C8.79486 114.734 10.276 114.501 11.7594 114.565C13.2428 114.628 14.6987 114.987 16.0418 115.62C17.3849 116.253 18.5883 117.147 19.5816 118.251Z" fill="#CEEAE8"/>
<path d="M22.2823 123.426C22.712 125.358 22.6255 127.37 22.0316 129.258C21.4377 131.146 20.3572 132.845 18.8988 134.184C17.4404 135.522 15.6554 136.453 13.7232 136.883C11.7909 137.313 9.77952 137.227 7.89107 136.634C7.4614 134.701 7.54786 132.69 8.14178 130.802C8.7357 128.913 9.81615 127.215 11.2746 125.876C12.733 124.538 14.518 123.607 16.4502 123.177C18.3825 122.747 20.3939 122.833 22.2823 123.426Z" fill="#70C3A0"/>
<path d="M11.5196 120.121C12.1177 120.783 12.482 121.624 12.5568 122.513C12.6315 123.403 12.4126 124.292 11.9335 125.045C11.4544 125.798 10.7416 126.374 9.90424 126.683C9.06693 126.992 8.15129 127.019 7.29762 126.758C6.61673 126.552 6.00324 126.167 5.52051 125.645C4.87586 124.837 4.56178 123.814 4.6417 122.784C4.72162 121.753 5.18959 120.792 5.9511 120.093C6.71261 119.394 7.71094 119.01 8.74451 119.019C9.77808 119.027 10.7699 119.428 11.5196 120.139V120.121Z" fill="#70C3A0"/>
<path d="M93.9863 100.743C94.0507 102.973 93.4524 105.172 92.2671 107.062C91.0818 108.951 89.3627 110.447 87.3272 111.36C85.2917 112.273 83.0313 112.561 80.8317 112.189C78.6322 111.817 76.5924 110.801 74.9703 109.27C73.3481 107.739 72.2165 105.761 71.7186 103.586C71.2206 101.412 71.3787 99.1386 72.1728 97.054C72.9668 94.9694 74.3613 93.1671 76.1797 91.875C77.9982 90.5829 80.1589 89.859 82.3888 89.795C83.871 89.7451 85.3484 89.9894 86.7356 90.5138C88.1228 91.0383 89.3923 91.8325 90.4707 92.8506C91.5491 93.8686 92.4151 95.0903 93.0185 96.445C93.622 97.7997 93.9509 99.2606 93.9863 100.743Z" fill="#CEEAE8"/>
<path d="M92.6397 106.423C91.7 108.166 90.3182 109.63 88.6332 110.669C86.9482 111.708 85.0194 112.286 83.0406 112.343C81.0618 112.401 79.1026 111.936 77.3601 110.997C75.6176 110.057 74.1531 108.676 73.1138 106.991C74.053 105.248 75.4348 103.783 77.12 102.743C78.8053 101.704 80.7346 101.126 82.7138 101.069C84.6931 101.012 86.6525 101.477 88.3949 102.418C90.1374 103.358 91.6014 104.741 92.6397 106.427V106.423Z" fill="#70C3A0"/>
<path d="M86.67 96.8774C86.6928 97.5922 86.5251 98.3003 86.184 98.929C85.7146 99.8009 84.9441 100.472 84.0162 100.818C83.0883 101.164 82.0663 101.161 81.1406 100.809C80.215 100.457 79.4488 99.7808 78.985 98.9059C78.5211 98.031 78.3912 97.0173 78.6195 96.0537C78.8478 95.0901 79.4186 94.2424 80.2257 93.6685C81.0327 93.0946 82.0209 92.8338 83.006 92.9346C83.9912 93.0354 84.906 93.4909 85.5802 94.2163C86.2543 94.9417 86.6416 95.8875 86.67 96.8774Z" fill="#70C3A0"/>
<path d="M25.1616 194.829C26.6568 196.484 27.6275 198.546 27.951 200.753C28.2744 202.96 27.936 205.214 26.9785 207.229C26.0211 209.244 24.4876 210.929 22.5721 212.073C20.6565 213.216 18.4449 213.766 16.217 213.652C13.9891 213.538 11.8449 212.767 10.0556 211.434C8.26636 210.102 6.9124 208.269 6.16496 206.167C5.41753 204.065 5.3102 201.789 5.85655 199.626C6.40291 197.463 7.5784 195.511 9.23436 194.016C10.3309 193.019 11.614 192.248 13.0099 191.748C14.4057 191.249 15.8866 191.03 17.3671 191.106C18.8477 191.182 20.2987 191.549 21.6365 192.188C22.9742 192.827 24.1723 193.725 25.1616 194.829Z" fill="#CEEAE8"/>
<path d="M27.8215 200.026C28.2349 201.962 28.1316 203.973 27.5222 205.856C26.9127 207.739 25.8185 209.429 24.3494 210.756C22.8803 212.082 21.088 212.999 19.1525 213.414C17.217 213.829 15.2065 213.727 13.3227 213.119C12.9082 211.183 13.0106 209.172 13.6196 207.288C14.2287 205.404 15.3229 203.714 16.7924 202.387C18.2618 201.06 20.0546 200.143 21.9907 199.729C23.9267 199.315 25.9377 199.417 27.8215 200.026Z" fill="#70C3A0"/>
<path d="M17.0849 196.635C17.6278 197.234 17.9809 197.98 18.0993 198.779C18.2178 199.578 18.0964 200.395 17.7505 201.125C17.4045 201.855 16.8496 202.466 16.1561 202.881C15.4625 203.295 14.6616 203.494 13.8547 203.453C13.0478 203.412 12.2712 203.132 11.6234 202.65C10.9756 202.167 10.4857 201.502 10.2158 200.741C9.9459 199.979 9.90811 199.155 10.1072 198.372C10.3064 197.589 10.7334 196.882 11.3344 196.342C11.7295 195.981 12.1926 195.701 12.6967 195.52C13.2008 195.338 13.7359 195.259 14.2709 195.286C14.8059 195.314 15.3302 195.447 15.8133 195.679C16.2964 195.91 16.7286 196.235 17.0849 196.635Z" fill="#70C3A0"/>
<path d="M83.2979 114.596C83.2979 114.596 76.5901 122.814 83.9323 127.407C91.2745 132 96.5947 131.859 98.8504 137.736C101.106 143.612 91.7605 148.439 90.9554 153.191C90.4915 156.14 90.7682 159.158 91.7605 161.973" stroke="white" stroke-miterlimit="10" stroke-dasharray="7 7"/>
<path d="M20.5721 135.22C20.5721 135.22 18.8841 142.466 25.5881 142.47C32.2922 142.473 40.5136 137.799 42.7693 145.374C45.025 152.95 41.801 155.365 47.763 156.976C53.7251 158.586 58.7188 159.072 62.7516 161.973" stroke="white" stroke-miterlimit="10" stroke-dasharray="7 7"/>
<path d="M26.7272 212.251C26.7272 212.251 34.2586 217.894 40.4543 211.609C46.6501 205.324 40.3579 196.231 48.8984 191.108C57.4389 185.984 61.8835 189.453 61.8835 189.453" stroke="white" stroke-miterlimit="10" stroke-dasharray="7 7"/>
<path opacity="0.46" d="M126.85 30.921H57.7096C52.9149 30.921 49.0281 34.8078 49.0281 39.6024V68.4551C49.0281 73.2497 52.9149 77.1365 57.7096 77.1365H126.85C131.645 77.1365 135.531 73.2497 135.531 68.4551V39.6024C135.531 34.8078 131.645 30.921 126.85 30.921Z" fill="#CEEAE8"/>
<path opacity="0.46" d="M119.641 26.8883H50.5011C45.7065 26.8883 41.8196 30.7751 41.8196 35.5697V64.4223C41.8196 69.2169 45.7065 73.1037 50.5011 73.1037H119.641C124.436 73.1037 128.323 69.2169 128.323 64.4223V35.5697C128.323 30.7751 124.436 26.8883 119.641 26.8883Z" fill="#CEEAE8"/>
<path d="M70.4795 49.7474C70.4795 45.5972 67.1151 42.2328 62.9648 42.2328C58.8146 42.2328 55.4501 45.5972 55.4501 49.7474C55.4501 53.8976 58.8146 57.262 62.9648 57.262C67.1151 57.262 70.4795 53.8976 70.4795 49.7474Z" fill="white"/>
<path d="M92.2798 42.2328H77.2504V57.262H92.2798V42.2328Z" fill="#364E4C"/>
<path d="M114.689 49.7474C114.689 45.5972 111.324 42.2328 107.174 42.2328C103.024 42.2328 99.6592 45.5972 99.6592 49.7474C99.6592 53.8976 103.024 57.262 107.174 57.262C111.324 57.262 114.689 53.8976 114.689 49.7474Z" fill="#70C3A0"/>
<path d="M219.415 18.1809C219.415 18.1809 209.736 19.6315 202.401 17.5762C195.066 15.5208 191.56 12.7532 191.56 8.75381C191.56 4.75443 193.415 0.654881 195.99 0.0501516C198.565 -0.554578 194.588 4.41311 195.549 9.36225C196.51 14.3114 206.041 16.8379 210.103 17.2089C214.166 17.5799 220.254 16.708 219.415 18.1809Z" fill="#45695E"/>
<path d="M215.164 16.3667C215.164 16.3667 214.006 16.8342 211.454 15.7138C208.901 14.5934 208.348 13.9515 209.228 13.2244C210.107 12.4972 210.522 13.2244 211.454 13.9664C212.385 14.7084 213.924 16.2072 215.164 16.3667Z" fill="#45695E"/>
</svg>
