<svg width="54" height="10" viewBox="0 0 54 10" fill="none" xmlns="http://www.w3.org/2000/svg">
<path opacity="0.65" d="M54 5.44134C53.8399 6.33207 53.6923 7.17526 53.5571 7.97091L53.5234 8.16984C51.9733 8.74406 48.6443 8.36499 47.691 8.51136C46.6326 8.6765 45.897 9.16441 44.5121 9.49093C43.1272 9.81745 40.759 7.94091 40.759 7.94091C40.759 7.94091 37.171 7.53557 35.7073 7.3254C34.2435 7.11522 34.4837 7.45301 32.6072 7.94091C30.7306 8.42881 29.98 6.15818 20.706 5.41506C11.432 4.67195 0 1.4218 0 1.4218C0 1.4218 4.50375 -0.698704 7.31109 0.239568C9.99458 1.1253 49.8566 5.03601 54 5.44134Z" fill="#364E4C"/>
</svg>
