<svg width="25" height="18" viewBox="0 0 25 18" fill="none" xmlns="http://www.w3.org/2000/svg">
<path d="M2.84906 17.7725L23.2087 5.73406C23.6864 5.4516 24.0745 5.0397 24.328 4.546C24.5816 4.05229 24.6902 3.49692 24.6414 2.94407L24.5019 1.4058C24.4812 1.15976 24.4014 0.922345 24.2694 0.713721C24.1373 0.505097 23.9568 0.331425 23.7433 0.207449C23.5297 0.0834738 23.2895 0.0128574 23.0428 0.00159686C22.7961 -0.00966368 22.5504 0.0387594 22.3265 0.142763C15.3929 3.34748 5.31484 9.22155 1.39373 11.544C0.906101 11.8324 0.515919 12.2602 0.273363 12.7721C0.0308074 13.2841 -0.0530232 13.8569 0.0326568 14.417L0.356897 16.5849C0.398462 16.8538 0.505109 17.1085 0.667561 17.3268C0.830012 17.5451 1.04334 17.7205 1.289 17.8375C1.53466 17.9546 1.8052 18.0099 2.0771 17.9985C2.34899 17.9872 2.614 17.9096 2.84906 17.7725Z" fill="#EE7671"/>
</svg>
