<svg width="61" height="14" viewBox="0 0 61 14" fill="none" xmlns="http://www.w3.org/2000/svg">
<path d="M61 3.11164C61 3.20537 61 3.29909 60.9775 3.38906V3.48278C60.3927 8.97126 46.9787 13.3575 30.5019 13.3575C14.1375 13.3575 0.783532 9.03125 0.0374809 3.59151L0 3.61025V0.952238C0.0459409 1.24135 0.131732 1.52269 0.254929 1.78825C0.253318 1.7733 0.253318 1.75822 0.254929 1.74326C0.373883 2.03801 0.523412 2.31948 0.701061 2.58304C0.749798 2.66177 0.802282 2.74048 0.862266 2.81921C4.12765 7.29922 16.1544 10.6208 30.4794 10.6208C45.6141 10.6208 58.1658 6.91682 60.5651 2.05817L60.94 0.101218V0V2.74049C60.9675 2.86287 60.9876 2.98682 61 3.11164Z" fill="white"/>
</svg>
