<svg width="41" height="41" viewBox="0 0 41 41" fill="none" xmlns="http://www.w3.org/2000/svg">
<path d="M40.3821 25.459C37.6441 36.4413 26.5209 43.1249 15.5373 40.3863C4.5584 37.6483 -2.12518 26.5244 0.613945 15.543C3.35067 4.55959 14.4739 -2.12449 25.4541 0.61343C36.4368 3.35135 43.12 14.4765 40.3818 25.4593L40.382 25.459H40.3821Z" fill="#F7931A"/>
<path fill-rule="evenodd" clip-rule="evenodd" d="M29.5373 17.5793C29.9453 14.8512 27.8684 13.3847 25.0282 12.4064L25.9496 8.71097L23.7 8.15044L22.8031 11.7486C22.2117 11.6011 21.6044 11.4621 21.0008 11.3243L21.9042 7.70243L19.6561 7.1419L18.7342 10.8362C18.2448 10.7247 17.7642 10.6146 17.2978 10.4986L17.3004 10.4869L14.1983 9.71229L13.5999 12.1149C13.5999 12.1149 15.2688 12.4975 15.2337 12.5211C16.1446 12.7484 16.3093 13.3514 16.282 13.8294L15.2325 18.0394C15.2952 18.0553 15.3766 18.0784 15.4663 18.1144L15.401 18.0981C15.3455 18.0842 15.2878 18.0698 15.2286 18.0556L13.7575 23.9532C13.6462 24.23 13.3636 24.6453 12.7267 24.4876C12.7493 24.5203 11.0917 24.0796 11.0917 24.0796L9.97486 26.6546L12.9023 27.3843C13.2227 27.4647 13.5394 27.5473 13.8529 27.629L13.8532 27.6291L13.8535 27.6291C14.0726 27.6862 14.29 27.7429 14.5061 27.7982L13.5752 31.536L15.8222 32.0965L16.744 28.3984C17.3578 28.565 17.9536 28.7187 18.5367 28.8636L17.618 32.5443L19.8676 33.1049L20.7984 29.374C24.6343 30.1 27.5186 29.8073 28.7327 26.3377C29.711 23.5443 28.684 21.933 26.6659 20.8823C28.1358 20.5433 29.2429 19.5766 29.5381 17.5796L29.5374 17.5791L29.5373 17.5793ZM24.3976 24.7864C23.7598 27.3493 19.7482 26.2897 17.9127 25.8049L17.9127 25.8049C17.7476 25.7613 17.6001 25.7224 17.4743 25.6911L18.7096 20.7391C18.863 20.7774 19.0504 20.8195 19.2627 20.8671C21.1613 21.2932 25.0511 22.1662 24.3977 24.7864H24.3976ZM19.6435 18.5688C21.1737 18.9772 24.5119 19.8681 25.0933 17.5388H25.0935C25.6871 15.1564 22.4429 14.4382 20.8585 14.0874C20.6802 14.0479 20.523 14.0131 20.3946 13.9811L19.2746 18.4723C19.3804 18.4986 19.5045 18.5317 19.6435 18.5688Z" fill="white"/>
</svg>
