<svg width="192" height="230" viewBox="0 0 192 230" fill="none" xmlns="http://www.w3.org/2000/svg">
<path d="M171.279 162.564L121.148 196.594C119.061 198.011 116.715 199.003 114.245 199.514C111.775 200.024 109.228 200.043 106.75 199.569C104.273 199.095 101.913 198.138 99.8049 196.752C97.6972 195.366 95.8833 193.579 94.4666 191.491L94.2401 191.161L86.4418 179.668L168.353 124.056L174.168 132.623L176.396 135.88C179.255 140.097 180.322 145.277 179.362 150.281C178.403 155.285 175.495 159.703 171.279 162.564Z" fill="url(#paint0_linear_1_7715)"/>
<path opacity="0.54" d="M174.168 132.623C171.762 134.962 169.341 137.892 168.416 140.837C166.34 147.48 162.501 153.544 141.85 160.808C121.2 168.071 114.118 179.196 106.487 186.322C103.071 189.509 98.3843 190.756 94.2327 191.15L86.4345 179.657L168.353 124.056L174.168 132.623Z" fill="#28383B"/>
<path d="M68.6697 183.872C68.6697 183.872 78.306 188.149 100.327 176.779C122.347 165.409 150.592 142.404 161.015 134.918C171.439 127.432 175.305 120.536 177.492 111.635C179.679 102.734 112.369 151.855 112.369 151.855L68.6697 183.872Z" fill="#CDEAE8"/>
<path d="M176.983 113.395C174.536 121.877 169.508 126.451 125.604 157.956C81.6998 189.46 68.5506 183.972 68.5506 183.972L68.6731 183.872C66.2764 183.612 63.9672 182.823 61.9123 181.562C59.8574 180.302 58.1079 178.601 56.7901 176.582L40.2096 151.235L35.0628 143.366L115.459 90.788L153.518 65.8897L154.141 66.8441L158.122 72.9303L175.245 99.106C176.61 101.195 177.477 103.571 177.778 106.048C178.079 108.526 177.807 111.039 176.983 113.395Z" fill="url(#paint1_linear_1_7715)"/>
<path opacity="0.4" d="M35.0416 12.6585C52.2304 1.40401 73.1857 -2.56231 93.2986 1.63184C113.412 5.826 131.035 17.8372 142.293 35.0236L162.235 65.48L32.6005 150.359L12.6586 119.902C1.4026 102.711 -2.56329 81.7534 1.63338 61.6386C5.83005 41.5237 17.8455 23.8998 35.0365 12.644L35.0416 12.6585Z" fill="#364E4C"/>
<path d="M27.4131 139.166C27.4131 139.166 57.9784 106.191 91.0094 86.681C124.04 67.1708 152.589 51.9199 150.168 60.03C147.747 68.14 108.804 108.657 77.4628 125.82C46.1214 142.983 27.4131 139.166 27.4131 139.166Z" fill="#07060B"/>
<path d="M157.992 61.0475C157.25 59.9334 155.686 59.447 153.41 59.5101C151.342 59.5584 148.694 60.0671 145.556 60.9955C144.115 61.4225 142.585 61.9313 140.933 62.5291C127.349 67.4679 107.326 78.1625 86.145 92.2734C63.8644 107.127 45.6054 122.285 36.1807 133.065C35.5643 133.771 34.985 134.457 34.4428 135.126C32.9631 136.897 31.6551 138.804 30.5363 140.822C29.1957 143.373 28.8727 145.353 29.7193 146.626L22.0103 135.089C17.7547 128.709 43.0134 104.372 78.4544 80.7359C113.895 57.1001 146.039 43.1118 150.302 49.4914L157.992 61.0475Z" fill="url(#paint2_linear_1_7715)"/>
<path opacity="0.38" d="M153.41 59.5101C151.342 59.5584 148.694 60.0671 145.556 60.9955C144.115 61.4225 142.586 61.9313 140.933 62.5291C127.349 67.4679 107.326 78.1625 86.145 92.2734C63.8644 107.127 45.6055 122.285 36.1808 133.065C35.5643 133.77 34.9851 134.457 34.4429 135.126C32.9632 136.897 31.6552 138.804 30.5364 140.822C27.937 139.396 24.3349 134.94 36.9383 122.081C53.775 104.903 112.321 65.3884 127.26 59.1351C141.951 52.9931 154.164 50.3418 153.41 59.5101Z" fill="#28383B"/>
<path opacity="0.4" d="M158.122 72.9192C155.256 76.9074 146.826 86.5659 123.112 104.672C92.2905 128.215 65.2159 144.131 40.2096 151.235L35.0628 143.366L118.132 93.016L154.153 66.8404L158.122 72.9192Z" fill="#364E4C"/>
<path d="M134.605 201.752C134.605 201.752 132.292 214.043 138.203 222.509C144.115 230.976 156.228 229.962 156.228 229.962C156.228 229.962 159.864 223.594 155.705 211.796C151.546 199.999 134.605 201.752 134.605 201.752Z" fill="url(#paint3_linear_1_7715)"/>
<path d="M135.218 201.336C135.218 201.336 133.863 208.536 137.323 213.497C140.784 218.458 147.884 217.86 147.884 217.86C147.884 217.86 150.012 214.147 147.576 207.221C145.14 200.296 135.218 201.336 135.218 201.336Z" fill="white"/>
<path d="M102.239 116.429C66.8165 140.061 34.6545 154.049 30.3951 147.67L27.5655 143.429L22.6861 136.117C24.0897 138.223 28.531 138.111 35.1224 136.169C36.5595 135.746 38.0931 135.237 39.7456 134.639C53.3256 129.697 73.3484 119.01 94.5447 104.877C116.825 90.023 135.088 74.8613 144.509 64.085C145.125 63.3795 145.705 62.6888 146.247 62.0241C150.569 56.6805 152.374 52.6255 150.97 50.5126L155.074 56.6954L158.665 62.0761C162.92 68.4557 137.661 92.7895 102.239 116.429Z" fill="#CEEAE8"/>
<path d="M110.739 66.7846C111.453 76.9423 108.227 86.9846 101.731 94.8263C95.2353 102.668 85.9685 107.706 75.8553 108.895C65.7421 110.083 55.5596 107.331 47.4226 101.209C39.2856 95.0871 33.8192 86.0662 32.1588 76.0198C31.9267 74.6615 31.7668 73.2918 31.6798 71.9165C31.084 62.7644 33.683 53.6891 39.0331 46.2396C44.3832 38.7902 52.1528 33.4283 61.0159 31.0693C63.0115 30.5353 65.0469 30.1627 67.1022 29.9552C67.6073 29.8995 68.1197 29.855 68.6322 29.8216C73.8243 29.4824 79.0324 30.1695 83.9589 31.8438C88.8854 33.518 93.4337 36.1466 97.3439 39.5792C101.254 43.0118 104.45 47.1812 106.748 51.8492C109.046 56.5173 110.403 61.5924 110.739 66.7846Z" fill="white"/>
<path opacity="0.2" d="M56.7289 61.5414C61.5107 54.0124 61.9586 45.7314 57.7292 43.0453C53.4998 40.3592 46.1948 44.2852 41.413 51.8142C36.6312 59.3432 36.1834 67.6242 40.4127 70.3103C44.6421 72.9964 51.9471 69.0704 56.7289 61.5414Z" fill="#99D0B5"/>
<path opacity="0.2" d="M75.9964 101.393C78.0254 96.8119 73.0593 90.1702 64.9042 86.5581C56.7492 82.946 48.4933 83.7314 46.4642 88.3124C44.4351 92.8933 49.4012 99.5351 57.5563 103.147C65.7114 106.759 73.9673 105.974 75.9964 101.393Z" fill="#99D0B5"/>
<path d="M150.918 198.358C150.918 198.358 146.974 202.65 140.045 207.351C133.116 212.052 127.676 214.139 127.676 214.139C127.069 213.246 126.57 212.284 126.19 211.273C124.951 208.054 124.94 204.492 126.158 201.265C127.376 198.039 129.74 195.373 132.797 193.777C135.855 192.181 139.393 191.765 142.737 192.61C146.081 193.455 148.997 195.501 150.929 198.358H150.918Z" fill="url(#paint4_linear_1_7715)"/>
<path d="M168.861 178.491C168.861 178.491 166.552 190.786 172.46 199.249C178.368 207.711 190.488 206.701 190.488 206.701C190.488 206.701 194.124 200.337 189.965 188.536C185.806 176.734 168.861 178.491 168.861 178.491Z" fill="url(#paint5_linear_1_7715)"/>
<path d="M169.474 178.075C169.474 178.075 168.123 185.275 171.584 190.236C175.045 195.197 182.141 194.603 182.141 194.603C182.141 194.603 184.273 190.89 181.837 183.961C179.4 177.031 169.474 178.075 169.474 178.075Z" fill="white"/>
<path d="M121.345 196.485L136.802 185.993L138.44 188.404C138.834 188.986 139.111 189.639 139.252 190.328C139.394 191.016 139.399 191.725 139.266 192.415C139.133 193.105 138.866 193.762 138.479 194.349C138.092 194.935 137.593 195.44 137.011 195.833L130.405 200.317C129.232 201.113 127.792 201.411 126.4 201.144C125.008 200.878 123.778 200.07 122.982 198.897L121.345 196.485Z" fill="#364E4C"/>
<path opacity="0.56" d="M150.918 198.357C150.918 198.357 146.975 202.65 140.045 207.351C133.116 212.052 127.676 214.139 127.676 214.139C127.069 213.246 126.57 212.284 126.191 211.273C130.337 209.326 134.334 207.078 138.152 204.548C141.912 201.929 145.48 199.043 148.828 195.914C149.616 196.645 150.318 197.465 150.918 198.357Z" fill="#364E4C"/>
<path d="M148.401 198.844C148.638 198.844 148.831 198.651 148.831 198.413C148.831 198.175 148.638 197.982 148.401 197.982C148.163 197.982 147.97 198.175 147.97 198.413C147.97 198.651 148.163 198.844 148.401 198.844Z" fill="#364E4C"/>
<path d="M185.178 175.082C185.178 175.082 181.231 179.375 174.305 184.076C167.38 188.777 161.932 190.864 161.932 190.864C160.896 189.338 160.17 187.622 159.797 185.815C159.424 184.009 159.41 182.146 159.757 180.334C160.103 178.522 160.803 176.796 161.817 175.254C162.831 173.713 164.138 172.386 165.664 171.35C167.191 170.314 168.906 169.588 170.713 169.215C172.52 168.842 174.382 168.828 176.194 169.175C178.006 169.521 179.732 170.221 181.274 171.235C182.815 172.248 184.142 173.556 185.178 175.082Z" fill="url(#paint6_linear_1_7715)"/>
<path d="M155.603 173.229L171.06 162.736L172.697 165.148C173.493 166.32 173.791 167.761 173.525 169.153C173.258 170.545 172.45 171.774 171.277 172.57L164.666 177.058C163.493 177.854 162.052 178.152 160.66 177.886C159.268 177.619 158.039 176.811 157.243 175.639L155.606 173.227L155.603 173.229Z" fill="#364E4C"/>
<path opacity="0.56" d="M185.178 175.082C185.178 175.082 181.231 179.375 174.305 184.076C167.38 188.777 161.932 190.864 161.932 190.864C161.328 189.97 160.83 189.009 160.447 188.001C164.593 186.052 168.592 183.803 172.411 181.272C176.173 178.656 179.739 175.77 183.084 172.639C183.873 173.37 184.576 174.19 185.178 175.082Z" fill="#364E4C"/>
<path d="M163.199 188.796C163.437 188.796 163.63 188.603 163.63 188.365C163.63 188.127 163.437 187.934 163.199 187.934C162.961 187.934 162.768 188.127 162.768 188.365C162.768 188.603 162.961 188.796 163.199 188.796Z" fill="#364E4C"/>
<path d="M173.269 182.999C173.507 182.999 173.7 182.806 173.7 182.568C173.7 182.33 173.507 182.137 173.269 182.137C173.032 182.137 172.839 182.33 172.839 182.568C172.839 182.806 173.032 182.999 173.269 182.999Z" fill="#364E4C"/>
<path d="M182.661 175.583C182.898 175.583 183.091 175.39 183.091 175.153C183.091 174.915 182.898 174.722 182.661 174.722C182.423 174.722 182.23 174.915 182.23 175.153C182.23 175.39 182.423 175.583 182.661 175.583Z" fill="#364E4C"/>
<path opacity="0.2" d="M97.4091 49.5706C99.1114 46.1248 95.5202 40.8757 89.388 37.8463C83.2559 34.817 76.9048 35.1546 75.2025 38.6003C73.5002 42.0461 77.0914 47.2952 83.2236 50.3245C89.3558 53.3539 95.7069 53.0163 97.4091 49.5706Z" fill="#99D0B5"/>
<path opacity="0.2" d="M56.2109 78.0251C58.2433 78.0251 59.8909 76.3775 59.8909 74.3451C59.8909 72.3127 58.2433 70.6651 56.2109 70.6651C54.1785 70.6651 52.5309 72.3127 52.5309 74.3451C52.5309 76.3775 54.1785 78.0251 56.2109 78.0251Z" fill="#99D0B5"/>
<path opacity="0.2" d="M68.1012 32.239C68.1324 32.7215 68.0682 33.2054 67.9124 33.6632C67.7566 34.1209 67.5121 34.5435 67.193 34.9068C66.8739 35.27 66.4863 35.5669 66.0524 35.7804C65.6186 35.9939 65.1469 36.1198 64.6644 36.151C64.1819 36.1822 63.6979 36.1181 63.2401 35.9623C62.7824 35.8064 62.3598 35.562 61.9966 35.2429C61.6333 34.9237 61.3364 34.5362 61.1229 34.1023C60.9094 33.6685 60.7835 33.1968 60.7523 32.7143C60.7137 32.1535 60.8066 31.5915 61.0234 31.073C63.019 30.539 65.0543 30.1664 67.1097 29.9589C67.6952 30.5806 68.0458 31.3868 68.1012 32.239Z" fill="#99D0B5"/>
<path opacity="0.2" d="M107.118 86.0794C104.665 91.3327 101.091 95.9846 96.6464 99.7076C94.8396 99.5379 93.1112 98.887 91.6413 97.8227C90.1714 96.7583 89.0136 95.3194 88.2886 93.6558C87.5635 91.9921 87.2977 90.1645 87.5187 88.3633C87.7397 86.562 88.4395 84.8529 89.5452 83.4138C90.651 81.9748 92.1222 80.8585 93.8059 80.1811C95.4895 79.5036 97.324 79.2899 99.1182 79.5621C100.913 79.8342 102.601 80.5824 104.008 81.7286C105.415 82.8748 106.489 84.3772 107.118 86.0794Z" fill="#99D0B5"/>
<path opacity="0.2" d="M97.9981 72.0577C101.519 72.0577 104.374 69.2031 104.374 65.6818C104.374 62.1605 101.519 59.3059 97.9981 59.3059C94.4767 59.3059 91.6221 62.1605 91.6221 65.6818C91.6221 69.2031 94.4767 72.0577 97.9981 72.0577Z" fill="#99D0B5"/>
<path opacity="0.2" d="M41.6875 81.1332C41.7936 82.741 41.2863 84.3293 40.2678 85.5779C39.2493 86.8265 37.7954 87.6427 36.199 87.8618C34.229 84.1554 32.865 80.1575 32.1588 76.0198C33.0975 75.4827 34.1573 75.1932 35.2387 75.1785C36.32 75.1638 37.3874 75.4244 38.3403 75.9358C39.2932 76.4471 40.1004 77.1925 40.6859 78.1017C41.2715 79.0109 41.6161 80.0541 41.6875 81.1332Z" fill="#99D0B5"/>
<path opacity="0.24" d="M102.239 116.429C66.8162 140.061 34.6541 154.049 30.3948 147.67L27.5652 143.429C30.6362 144.172 34.5539 144.112 39.3516 142.178C53.1433 136.608 70.3254 136.195 84.2359 123.941C98.1464 111.687 110.88 99.6333 126.198 93.0086C141.516 86.3839 151.482 74.3191 153.536 65.8786C154.331 62.6182 154.691 59.4841 155.092 56.6954L158.683 62.076C162.92 68.4557 137.661 92.7895 102.239 116.429Z" fill="#364E4C"/>
<path opacity="0.2" d="M68.5689 72.3473C68.5689 72.3473 63.3181 68.6339 64.2279 62.7668C65.1377 56.8996 69.6644 54.2037 74.2319 55.0243C78.7994 55.845 78.0048 63.3275 82.5277 65.7932C87.0507 68.2589 91.5959 78.4595 83.5415 81.408C75.4871 84.3564 68.5689 72.3473 68.5689 72.3473Z" fill="#99D0B5"/>
<path d="M95.0532 135.048C96.1081 136.658 96.506 138.611 96.1651 140.506C95.8242 142.4 94.7704 144.092 93.2204 145.234C91.6704 146.375 89.7419 146.879 87.8316 146.643C85.9212 146.406 84.1741 145.446 82.9494 143.961C81.7248 142.476 81.1157 140.578 81.2474 138.658C81.3791 136.737 82.2416 134.94 83.6575 133.636C85.0734 132.332 86.9352 131.62 88.86 131.646C90.7848 131.673 92.6263 132.436 94.006 133.778C94.4005 134.162 94.7516 134.588 95.0532 135.048Z" fill="#364E4C"/>
<path d="M94.0063 133.778C95.1218 134.865 95.8724 136.271 96.1543 137.803C96.4362 139.335 96.2355 140.916 95.58 142.329C94.9245 143.741 93.8466 144.916 92.495 145.69C91.1434 146.463 89.5848 146.799 88.0346 146.649C86.4845 146.499 85.0191 145.871 83.8409 144.852C82.6627 143.834 81.8298 142.475 81.4573 140.962C81.0848 139.45 81.1911 137.86 81.7614 136.41C82.3317 134.961 83.3379 133.725 84.6411 132.872C86.0728 131.936 87.7804 131.517 89.4827 131.681C91.185 131.846 92.7804 132.585 94.0063 133.778Z" fill="#382A59"/>
<path d="M134.449 109.281C135.542 110.95 135.928 112.985 135.52 114.939C135.113 116.892 133.946 118.604 132.277 119.697C130.607 120.79 128.572 121.175 126.619 120.768C124.665 120.36 122.954 119.194 121.861 117.524C121.558 117.059 121.309 116.561 121.118 116.039C120.467 114.306 120.478 112.394 121.15 110.669C121.821 108.944 123.105 107.527 124.756 106.689C126.407 105.852 128.309 105.653 130.097 106.13C131.886 106.608 133.435 107.728 134.449 109.277V109.281Z" fill="#364E4C"/>
<path d="M133.402 108.007C134.518 109.094 135.268 110.5 135.55 112.032C135.832 113.564 135.631 115.145 134.976 116.558C134.32 117.971 133.242 119.145 131.891 119.919C130.539 120.693 128.981 121.028 127.43 120.878C125.88 120.728 124.415 120.1 123.237 119.081C122.058 118.063 121.226 116.704 120.853 115.191C120.481 113.679 120.587 112.089 121.157 110.639C121.727 109.19 122.734 107.954 124.037 107.101C125.469 106.166 127.176 105.746 128.879 105.91C130.581 106.075 132.176 106.815 133.402 108.007Z" fill="#382A59"/>
<path d="M85.1903 155.052L95.4765 170.782L79.3825 181.309C75.7565 183.672 71.3411 184.5 67.1054 183.611C62.8698 182.722 59.1598 180.189 56.7899 176.567L52.2596 169.642C52.2596 169.642 60.7039 171.844 85.1903 155.052Z" stroke="#1B232A" stroke-width="0.75" stroke-miterlimit="10"/>
<path d="M55.8767 172.178C56.2335 172.178 56.5228 171.889 56.5228 171.532C56.5228 171.175 56.2335 170.886 55.8767 170.886C55.5198 170.886 55.2306 171.175 55.2306 171.532C55.2306 171.889 55.5198 172.178 55.8767 172.178Z" fill="#364E4C"/>
<path d="M84.5815 158.602C84.9383 158.602 85.2276 158.313 85.2276 157.956C85.2276 157.599 84.9383 157.31 84.5815 157.31C84.2246 157.31 83.9353 157.599 83.9353 157.956C83.9353 158.313 84.2246 158.602 84.5815 158.602Z" fill="#364E4C"/>
<path d="M93.1111 171.643C93.468 171.643 93.7573 171.354 93.7573 170.997C93.7573 170.64 93.468 170.351 93.1111 170.351C92.7543 170.351 92.465 170.64 92.465 170.997C92.465 171.354 92.7543 171.643 93.1111 171.643Z" fill="#364E4C"/>
<path d="M144.141 116.492L154.431 132.218L170.525 121.691C174.144 119.317 176.673 115.605 177.558 111.369C178.443 107.133 177.611 102.718 175.245 99.0949L170.715 92.1694C170.715 92.1694 169.333 100.784 144.141 116.492Z" stroke="#1B232A" stroke-width="0.75" stroke-miterlimit="10"/>
<path d="M170.986 96.8817C171.342 96.8817 171.632 96.5924 171.632 96.2355C171.632 95.8787 171.342 95.5894 170.986 95.5894C170.629 95.5894 170.339 95.8787 170.339 96.2355C170.339 96.5924 170.629 96.8817 170.986 96.8817Z" fill="#364E4C"/>
<path d="M147.045 117.743C147.402 117.743 147.691 117.454 147.691 117.097C147.691 116.74 147.402 116.451 147.045 116.451C146.688 116.451 146.399 116.74 146.399 117.097C146.399 117.454 146.688 117.743 147.045 117.743Z" fill="#364E4C"/>
<path d="M155.575 130.785C155.932 130.785 156.221 130.496 156.221 130.139C156.221 129.782 155.932 129.493 155.575 129.493C155.218 129.493 154.929 129.782 154.929 130.139C154.929 130.496 155.218 130.785 155.575 130.785Z" fill="#364E4C"/>
<path d="M66.2073 132.14C66.8143 132.14 67.3065 131.648 67.3065 131.041C67.3065 130.434 66.8143 129.942 66.2073 129.942C65.6002 129.942 65.1081 130.434 65.1081 131.041C65.1081 131.648 65.6002 132.14 66.2073 132.14Z" fill="#FCBD68"/>
<path d="M129.147 89.6554C129.754 89.6554 130.246 89.1633 130.246 88.5563C130.246 87.9492 129.754 87.4571 129.147 87.4571C128.54 87.4571 128.047 87.9492 128.047 88.5563C128.047 89.1633 128.54 89.6554 129.147 89.6554Z" fill="#FCBD68"/>
<path d="M91.8707 115.619C92.0338 115.865 92.1465 116.141 92.2021 116.431C92.2577 116.721 92.2552 117.019 92.1948 117.308C92.1343 117.596 92.0171 117.87 91.8499 118.113C91.6827 118.357 91.4689 118.564 91.2209 118.724L80.9347 125.453C80.6889 125.615 80.4134 125.727 80.124 125.782C79.8346 125.838 79.5371 125.835 79.2487 125.775C78.9603 125.714 78.6868 125.597 78.444 125.43C78.2011 125.264 77.9938 125.05 77.834 124.803C77.6128 124.471 77.4846 124.087 77.4626 123.689C77.4494 123.493 77.4644 123.297 77.5072 123.106C77.5664 122.817 77.6822 122.543 77.8479 122.3C78.0136 122.056 78.226 121.848 78.4727 121.687L88.7589 114.958C89.257 114.634 89.8635 114.52 90.4454 114.642C91.0272 114.764 91.5371 115.111 91.8633 115.608L91.8707 115.619Z" fill="#44675F"/>
<path d="M91.0055 114.847C91.0169 115.043 91.0019 115.239 90.961 115.43C90.8395 116.012 90.4923 116.522 89.9955 116.849L79.7093 123.577C79.3814 123.792 79.0029 123.916 78.6117 123.938C78.2205 123.959 77.8306 123.877 77.4812 123.7C77.468 123.504 77.483 123.308 77.5258 123.117C77.585 122.828 77.7007 122.554 77.8665 122.311C78.0322 122.067 78.2445 121.859 78.4912 121.698L88.7775 114.97C89.1053 114.755 89.4839 114.631 89.8751 114.609C90.2662 114.588 90.6561 114.67 91.0055 114.847Z" fill="#1B232A"/>
<path d="M119.373 97.6281C119.536 97.8737 119.649 98.1494 119.705 98.439C119.761 98.7287 119.758 99.0265 119.698 99.3153C119.638 99.6041 119.521 99.8781 119.354 100.121C119.188 100.365 118.974 100.572 118.726 100.732L108.44 107.461C108.194 107.624 107.918 107.737 107.629 107.792C107.339 107.848 107.041 107.846 106.752 107.785C106.463 107.725 106.189 107.607 105.946 107.44C105.703 107.273 105.496 107.059 105.336 106.811C105.174 106.565 105.062 106.29 105.007 106C104.952 105.711 104.956 105.414 105.016 105.125C105.076 104.837 105.191 104.563 105.357 104.319C105.523 104.076 105.735 103.868 105.982 103.707L116.268 96.9782C116.597 96.7662 116.975 96.6434 117.366 96.6219C117.757 96.6004 118.146 96.681 118.496 96.8557C118.852 97.0306 119.154 97.2972 119.373 97.6281Z" fill="#44675F"/>
<path d="M118.508 96.8557C118.519 97.0511 118.504 97.2472 118.463 97.4387C118.404 97.7272 118.288 98.0011 118.122 98.2446C117.957 98.4881 117.744 98.6963 117.498 98.8572L107.211 105.586C106.883 105.8 106.505 105.925 106.114 105.946C105.723 105.968 105.333 105.886 104.983 105.708C104.972 105.513 104.987 105.317 105.028 105.125C105.087 104.837 105.203 104.563 105.369 104.319C105.534 104.076 105.747 103.868 105.993 103.707L116.28 96.9782C116.608 96.7662 116.987 96.6434 117.377 96.6219C117.768 96.6004 118.157 96.681 118.508 96.8557Z" fill="#1B232A"/>
<path d="M145.783 74.5382C146.39 74.5382 146.882 74.0461 146.882 73.4391C146.882 72.832 146.39 72.3399 145.783 72.3399C145.176 72.3399 144.683 72.832 144.683 73.4391C144.683 74.0461 145.176 74.5382 145.783 74.5382Z" fill="#FCBD68"/>
<path d="M154.929 61.0511C155.536 61.0511 156.028 60.559 156.028 59.952C156.028 59.3449 155.536 58.8528 154.929 58.8528C154.322 58.8528 153.83 59.3449 153.83 59.952C153.83 60.559 154.322 61.0511 154.929 61.0511Z" fill="#FCBD68"/>
<path d="M43.8674 141.936C44.4745 141.936 44.9666 141.444 44.9666 140.837C44.9666 140.23 44.4745 139.738 43.8674 139.738C43.2603 139.738 42.7682 140.23 42.7682 140.837C42.7682 141.444 43.2603 141.936 43.8674 141.936Z" fill="#FCBD68"/>
<g opacity="0.26">
<path opacity="0.26" d="M129.358 130.232C139.725 130.232 148.13 121.827 148.13 111.46C148.13 101.093 139.725 92.6893 129.358 92.6893C118.991 92.6893 110.587 101.093 110.587 111.46C110.587 121.827 118.991 130.232 129.358 130.232Z" fill="white"/>
</g>
<path d="M29.0804 145.048C29.6875 145.048 30.1796 144.556 30.1796 143.949C30.1796 143.342 29.6875 142.85 29.0804 142.85C28.4734 142.85 27.9812 143.342 27.9812 143.949C27.9812 144.556 28.4734 145.048 29.0804 145.048Z" fill="#FCBD68"/>
<path d="M129.039 125.906C136.611 125.906 142.749 119.767 142.749 112.196C142.749 104.624 136.611 98.4858 129.039 98.4858C121.467 98.4858 115.329 104.624 115.329 112.196C115.329 119.767 121.467 125.906 129.039 125.906Z" fill="white"/>
<path d="M123.884 64.5715C128.257 64.5715 131.802 61.0269 131.802 56.6545C131.802 52.2821 128.257 48.7376 123.884 48.7376C119.512 48.7376 115.967 52.2821 115.967 56.6545C115.967 61.0269 119.512 64.5715 123.884 64.5715Z" fill="white"/>
<path d="M22.686 48.7821C25.5367 48.7821 27.8477 46.4712 27.8477 43.6205C27.8477 40.7698 25.5367 38.4589 22.686 38.4589C19.8353 38.4589 17.5243 40.7698 17.5243 43.6205C17.5243 46.4712 19.8353 48.7821 22.686 48.7821Z" fill="white"/>
<g opacity="0.26">
<path opacity="0.26" d="M89.7692 157.937C100.136 157.937 108.541 149.533 108.541 139.166C108.541 128.799 100.136 120.395 89.7692 120.395C79.402 120.395 70.9978 128.799 70.9978 139.166C70.9978 149.533 79.402 157.937 89.7692 157.937Z" fill="white"/>
</g>
<path d="M89.4496 153.611C97.0214 153.611 103.16 147.473 103.16 139.901C103.16 132.33 97.0214 126.191 89.4496 126.191C81.8777 126.191 75.7395 132.33 75.7395 139.901C75.7395 147.473 81.8777 153.611 89.4496 153.611Z" fill="white"/>
<path opacity="0.43" d="M31.6948 32.1833C32.1813 28.3065 27.2944 26.1824 24.7767 29.168C19.2065 35.7667 7.18613 52.7815 6.68481 77.2118C6.03867 109.069 24.7841 132.148 32.159 130.781C39.5339 129.415 34.387 120.558 29.0657 110.558C23.7443 100.558 11.8688 79.5699 21.2675 58.8528C26.8451 46.517 31.0227 37.5825 31.6948 32.1833Z" fill="white"/>
<path opacity="0.43" d="M35.0628 20.8909C35.0628 20.8909 36.6076 18.6257 39.0288 18.5403C41.4499 18.4549 44.8589 22.1014 41.7025 24.957C38.546 27.8126 32.3892 24.9385 35.0628 20.8909Z" fill="white"/>
<path opacity="0.43" d="M145.79 51.6489C145.79 51.6489 125.121 25.4323 119.74 20.8909C114.359 16.3494 104.515 9.10084 89.7689 7.48923C75.0228 5.87762 92.4203 12.8105 98.8742 14.916C105.328 17.0215 111.221 14.916 126.179 34.1105C141.137 53.305 143.814 57.9096 145.79 51.6489Z" fill="white"/>
<path opacity="0.54" d="M136.8 185.991L121.343 196.484L122.98 198.895L138.437 188.403L136.8 185.991Z" fill="#28383B"/>
<path opacity="0.54" d="M156.945 175.153L172.345 164.577L171.071 162.702L155.616 173.196L156.945 175.153Z" fill="#28383B"/>
<path d="M49.0734 123.343C51.9241 123.343 54.2351 121.032 54.2351 118.182C54.2351 115.331 51.9241 113.02 49.0734 113.02C46.2227 113.02 43.9118 115.331 43.9118 118.182C43.9118 121.032 46.2227 123.343 49.0734 123.343Z" fill="white"/>
<defs>
<linearGradient id="paint0_linear_1_7715" x1="162.337" y1="194.161" x2="125.526" y2="150.956" gradientUnits="userSpaceOnUse">
<stop offset="0.41" stop-color="#99D0B5"/>
<stop offset="1" stop-color="#45695E"/>
</linearGradient>
<linearGradient id="paint1_linear_1_7715" x1="64659.1" y1="87505.8" x2="99561.2" y2="123726" gradientUnits="userSpaceOnUse">
<stop offset="0.41" stop-color="#99D0B5"/>
<stop offset="1" stop-color="#45695E"/>
</linearGradient>
<linearGradient id="paint2_linear_1_7715" x1="42023.6" y1="63625.8" x2="64845.7" y2="81984.5" gradientUnits="userSpaceOnUse">
<stop offset="0.41" stop-color="#99D0B5"/>
<stop offset="1" stop-color="#45695E"/>
</linearGradient>
<linearGradient id="paint3_linear_1_7715" x1="133.472" y1="194.347" x2="154.542" y2="229.658" gradientUnits="userSpaceOnUse">
<stop offset="0.1" stop-color="#EE7671"/>
<stop offset="0.2" stop-color="#D76D69"/>
<stop offset="0.76" stop-color="#51383C"/>
<stop offset="1" stop-color="#1B232A"/>
</linearGradient>
<linearGradient id="paint4_linear_1_7715" x1="17324.9" y1="23930.3" x2="16383.5" y2="22498.5" gradientUnits="userSpaceOnUse">
<stop offset="0.41" stop-color="#99D0B5"/>
<stop offset="1" stop-color="#45695E"/>
</linearGradient>
<linearGradient id="paint5_linear_1_7715" x1="166.916" y1="172.171" x2="194.038" y2="212.665" gradientUnits="userSpaceOnUse">
<stop offset="0.1" stop-color="#EE7671"/>
<stop offset="0.87" stop-color="#1B232A"/>
</linearGradient>
<linearGradient id="paint6_linear_1_7715" x1="19621" y1="22399.2" x2="18680.6" y2="20968.3" gradientUnits="userSpaceOnUse">
<stop offset="0.41" stop-color="#99D0B5"/>
<stop offset="1" stop-color="#45695E"/>
</linearGradient>
</defs>
</svg>
