<svg width="154" height="193" viewBox="0 0 154 193" fill="none" xmlns="http://www.w3.org/2000/svg">
<path d="M153.322 34.0188C152.627 47.8042 151.348 62.5041 149.604 68.0026C148.92 70.1514 148.199 72.6906 147.47 75.4641C147.418 75.6648 147.363 75.8656 147.311 76.07C146.772 78.1334 146.225 80.3194 145.686 82.5723C145.217 84.5353 144.753 86.5466 144.299 88.569C143.898 90.3573 143.504 92.1529 143.124 93.9337C142.929 94.8483 142.738 95.7554 142.552 96.6551C141.73 100.581 140.99 104.343 140.377 107.641L140.031 109.533C139.873 110.416 139.726 111.251 139.593 112.039L139.559 112.236C137.544 123.571 129.818 138.461 116.974 147.134C111.244 151.001 94.3137 160.462 77.2417 169.79C55.8237 181.497 34.19 193 34.19 193C34.19 193 1.02002 167.322 0.0496779 149.395C-0.92066 131.468 12.6455 129.52 12.6455 129.52L64.4861 94.6401C64.4861 94.6401 67.0885 90.2792 68.5236 79.9439C69.9586 69.6086 71.7394 53.6298 71.7394 53.6298V53.6782C71.3677 54.4589 66.1925 64.8611 60.7795 73.5978C60.5081 74.0402 60.2329 74.4789 59.9578 74.9101C59.6269 75.4306 59.2998 75.9399 58.9689 76.4418L58.4112 77.282C57.9242 78.0033 57.4409 78.7022 56.9613 79.364C56.0523 80.6461 55.0705 81.875 54.0206 83.0445C52.9387 84.2156 51.946 85.0632 51.091 85.4462C49.7667 86.0243 48.356 86.3797 46.9159 86.4983C40.6217 87.0597 33.2048 83.5985 34.1974 73.8171C35.4243 61.7048 44.6295 41.3576 58.8425 24.0776C66.0066 15.3633 70.7096 8.32562 81.9819 4.15433H82.0005L82.1492 4.09856H82.1864L82.3834 4.02793L83.0935 3.77883C92.3433 0.629918 105.872 -0.704747 128.138 0.362241C132.659 0.577869 137.54 0.893875 142.82 1.31398H142.857C144.577 1.61871 146.28 2.01585 147.957 2.50366L148.329 2.61147C148.991 2.81223 149.653 3.03901 150.274 3.28438C151.79 3.87922 153.058 4.59673 153.478 5.41463C153.753 5.95742 153.898 8.6379 153.917 12.627C153.936 18.0363 153.731 25.8659 153.322 34.0188Z" fill="#70C3A0"/>
</svg>
